<mxfile host="65bd71144e">
    <diagram id="YTB4nE690Jy8CZSNqxyX" name="Page-1">
        <mxGraphModel dx="835" dy="606" grid="1" gridSize="10" guides="1" tooltips="1" connect="1" arrows="1" fold="1" page="1" pageScale="1" pageWidth="827" pageHeight="1169" math="0" shadow="0">
            <root>
                <mxCell id="0"/>
                <mxCell id="1" parent="0"/>
                <mxCell id="3" value="&lt;div style=&quot;text-align: justify;&quot;&gt;&lt;span style=&quot;background-color: initial;&quot;&gt;&amp;lt;&lt;/span&gt;&lt;span style=&quot;color: rgb(156, 220, 254); background-color: rgb(30, 30, 30); font-family: Menlo, Monaco, &amp;quot;Courier New&amp;quot;, monospace;&quot;&gt;QueryClientProvider&lt;/span&gt;&lt;span style=&quot;background-color: initial; font-family: Menlo, Monaco, &amp;quot;Courier New&amp;quot;, monospace; color: rgb(156, 220, 254);&quot;&gt;client&lt;/span&gt;&lt;span style=&quot;background-color: rgb(30, 30, 30); color: rgb(212, 212, 212); font-family: Menlo, Monaco, &amp;quot;Courier New&amp;quot;, monospace;&quot;&gt;=&lt;/span&gt;&lt;span style=&quot;background-color: initial; font-family: Menlo, Monaco, &amp;quot;Courier New&amp;quot;, monospace; color: rgb(86, 156, 214);&quot;&gt;{&lt;/span&gt;&lt;span style=&quot;background-color: initial; font-family: Menlo, Monaco, &amp;quot;Courier New&amp;quot;, monospace; color: rgb(79, 193, 255);&quot;&gt;queryClient&lt;/span&gt;&lt;span style=&quot;background-color: initial; font-family: Menlo, Monaco, &amp;quot;Courier New&amp;quot;, monospace; color: rgb(86, 156, 214);&quot;&gt;}&lt;/span&gt;&lt;span style=&quot;background-color: rgb(30, 30, 30); color: rgb(156, 220, 254); font-family: Menlo, Monaco, &amp;quot;Courier New&amp;quot;, monospace;&quot;&gt;&amp;gt;&lt;/span&gt;&lt;/div&gt;&lt;span style=&quot;color: rgb(156, 220, 254); background-color: rgb(30, 30, 30); font-family: Menlo, Monaco, &amp;quot;Courier New&amp;quot;, monospace;&quot;&gt;&lt;div style=&quot;text-align: justify;&quot;&gt;&amp;lt;App /&amp;gt;&lt;/div&gt;&lt;/span&gt;&lt;div style=&quot;text-align: justify; color: rgb(212, 212, 212); background-color: rgb(30, 30, 30); font-family: Menlo, Monaco, &amp;quot;Courier New&amp;quot;, monospace; line-height: 18px;&quot;&gt; &lt;span style=&quot;color: #808080;&quot;&gt;&amp;lt;&lt;/span&gt;&lt;span style=&quot;color: #4ec9b0;&quot;&gt;ReactQueryDevtools&lt;/span&gt; &lt;span style=&quot;color: #808080;&quot;&gt;/&amp;gt;&lt;/span&gt;&lt;/div&gt;&lt;span style=&quot;color: rgb(156, 220, 254); background-color: rgb(30, 30, 30); font-family: Menlo, Monaco, &amp;quot;Courier New&amp;quot;, monospace;&quot;&gt;&lt;div style=&quot;text-align: justify;&quot;&gt;&amp;lt;/QueryClientProvider&amp;gt;&lt;/div&gt;&lt;/span&gt;" style="rounded=1;whiteSpace=wrap;html=1;align=right;" parent="1" vertex="1">
                    <mxGeometry x="40" y="10" width="430" height="100" as="geometry"/>
                </mxCell>
                <mxCell id="4" value="&lt;font style=&quot;font-size: 14px;&quot;&gt;App&lt;/font&gt;" style="text;html=1;strokeColor=none;fillColor=none;align=center;verticalAlign=middle;whiteSpace=wrap;rounded=0;" parent="1" vertex="1">
                    <mxGeometry x="40" y="10" width="60" height="30" as="geometry"/>
                </mxCell>
                <mxCell id="5" value="&lt;div style=&quot;background-color: rgb(30, 30, 30); font-family: Menlo, Monaco, &amp;quot;Courier New&amp;quot;, monospace; font-weight: normal; font-size: 16px; line-height: 18px;&quot;&gt;&lt;div style=&quot;font-size: 16px;&quot;&gt;&lt;font color=&quot;#569cd6&quot; style=&quot;font-size: 16px;&quot;&gt;Cach time &amp;amp; stale time&lt;/font&gt;&lt;/div&gt;&lt;/div&gt;" style="rounded=0;whiteSpace=wrap;html=1;fontSize=16;" parent="1" vertex="1">
                    <mxGeometry x="40" y="1169" width="440" height="90" as="geometry"/>
                </mxCell>
                <mxCell id="10" value="&lt;div style=&quot;background-color: rgb(30, 30, 30); font-family: Menlo, Monaco, &amp;quot;Courier New&amp;quot;, monospace; font-weight: normal; font-size: 16px; line-height: 18px;&quot;&gt;&lt;div style=&quot;font-size: 16px;&quot;&gt;&lt;font color=&quot;#569cd6&quot;&gt;useQuery&lt;/font&gt;&lt;/div&gt;&lt;div style=&quot;font-size: 16px;&quot;&gt;&lt;font color=&quot;#569cd6&quot;&gt;useInfiniteQuery&lt;/font&gt;&lt;/div&gt;&lt;/div&gt;" style="rounded=0;whiteSpace=wrap;html=1;fontSize=16;" vertex="1" parent="1">
                    <mxGeometry x="40" y="1800" width="440" height="90" as="geometry"/>
                </mxCell>
                <mxCell id="11" value="&lt;div style=&quot;background-color: rgb(30, 30, 30); font-family: Menlo, Monaco, &amp;quot;Courier New&amp;quot;, monospace; font-weight: normal; font-size: 16px; line-height: 18px;&quot;&gt;&lt;div style=&quot;font-size: 16px;&quot;&gt;&lt;font color=&quot;#569cd6&quot;&gt;useQuery&lt;/font&gt;&lt;/div&gt;&lt;div style=&quot;font-size: 16px;&quot;&gt;&lt;font color=&quot;#569cd6&quot;&gt;useInfiniteQuery&lt;/font&gt;&lt;/div&gt;&lt;/div&gt;" style="rounded=0;whiteSpace=wrap;html=1;fontSize=16;" vertex="1" parent="1">
                    <mxGeometry x="40" y="2340" width="440" height="90" as="geometry"/>
                </mxCell>
                <mxCell id="12" value="Developer Job: Indicate when to update cache with new data from server" style="text;html=1;strokeColor=none;fillColor=none;align=left;verticalAlign=middle;whiteSpace=wrap;rounded=0;fontSize=16;" vertex="1" parent="1">
                    <mxGeometry x="35" y="690" width="680" height="30" as="geometry"/>
                </mxCell>
                <mxCell id="13" value="" style="shape=image;verticalLabelPosition=bottom;labelBackgroundColor=default;verticalAlign=top;aspect=fixed;imageAspect=0;image=data:image/png,iVBORw0KGgoAAAANSUhEUgAAAggAAAB5CAYAAABcHdkuAAAAAXNSR0IArs4c6QAAIABJREFUeF7snQd8VuX1x793vCNvNgkk7I0IAu5tXVWrVK1Va+us/9a9d60DrdatVavW2uGsrdZtHXWDWxBEQED2TgLZ4113/D/nee4bAkYhISz7XovF5I7nnvuM33PO7/yOYXfbyyd7ZC2QtcDGtYBvYWJw/VWnsf0uY1i6bCVfz5nD3x59mvr6pHq24ftgAO2MSNO3g/b5+Ibb2lbDAN8zwfD0z3wLLJNdd9qGnx3zI/r374nvmyxcWMETT7zIl19+DZY+t/2Bv7oBmb/JefL3DT7avFsoHOLi809m+rTZvPbGBHx5EWmTb8q/NvhR2RtkLdCuBQwDw7DAd/FVP/uWAafGx+pev/pvum9+25jQ5xn43zK6travYmQBwtb2ybLt3Sot4FsYODz20LUsWtHA44//gz/96Tbuf+AfPPv8m2oyysvPwzAMGhubMEyDWCwHy7ZpaWqBNGBCTixCOCLnNNOjRxEjR47ggw8mk0gk8T0PwzfYdbeRXPPbs3j+uf/w9jufYYcsfrDPzpxwws+57PLbmPbVLHX/ZDJNJBrB8zzSqTThSJhoLId4c1z9dyQSVhNdNFf/zDJNEokEGCbRaISkPNN1VZtlwpRFPzcvRktLglQqRSw3hmVZNDc248l5pqnfKWzjJBLc8vvz+eyTL3nplQmk3DTJZAqwiEaihKJhGusb1Ttlj6wFutoCpmAEGVCymLsB4DYFPOjVX4EDz8RUPzNwZWwBnu9i+r7GsJaAesHjFo7vqnFhup4aW/Jr73sAdLMAoat7XvZ+WQu0ZwHfwLQ8Hv3TtcRTMH78eC688GyuuOIW3pswkT323I6zzjqVgoJiHv77P6moqOLqqy7BMBweeezfPPfMu+x3wBjOPvtUohGbfz/zKrvsMoL9DtiHt975nN/97h6qV9VgGQ633nI5lhnm8ituI532MU0T205w440XAGG+/HIu/Xr34vY7/shvr7yExYsW8/bb7zPuukvo3qOYTybO5M47/soF559IcUkho0duy4cfTqRX757cevsfMcMRLr3oLK4bdwc1NXXgmxQU2Vw37mKGDx3I4oUV/OfVNzjz9FPBcHnooWd4+eX3+OHBO3P2OScSyYny5z//gwP324niwlwsu4C5C5Zy7bU3M2rUdlz5mwuxrbS65sl/vUrakwk8CxSyA6srLGBg4DJ8eB/OOf3/WFVdxx/u/gsFeTFOOvkoBg4YwKOPP83nk2bxf6f8jGQqznajR/La629TXl7OP594nr79+7Dvvrvzr389zXnn/pqBA/rzz6efZ8qkmZzx62OYMX02Pzh4X/766PPM/Xqx9u75W2f/zQKEruhz2XtkLbBOC/iYls+jD4xj0JBtaGpqYu68uVx99Z34nsUjj97MG2++zYoV1Rx37HH8+S9/o7amluHDh3LA/vtw4YXjeOihW3nk0Sf4YspXhKIRjjvux2y73RguvPhGZGMvk1DI8rnnD9eyYkUVN974J3xstfMx7QRXXH4KRUU9WLRwOYMH9ueKy67nrjtvYuGiBbhugvLyEl7/77scc9wxPPb40xz907FUV9fy+KNPYYciHHnEQWy77TbMnjWfwsJCbrjpTximje+nOP2MoyktLuAvDzxGfmExPXqU4jhJRo0ayrBho7jhprv5+9/u4L77/sz02YvIzy/gystOY8H8uTz19Bvcffet3Hr7Hzji8ENYumw5CxfM5YjDj2LcDfdTWVXdRTGOdX6k7Anfewt4GEaK2276DYW5ebzx5ng+/Ggy/3fq0Vi2z/Tpcxh76MHccsu93POH3zPh/Q+YM3cR8xcs45T/+xl/fehh9t//B4Rsk7KyUnJy8vjks0mc8etfMm7c7Vx+ya/55KPJTJr+FZNnLqJiRa3GtuJh2AqPrQYgqBhlG5dNl8REu/KDia/J3+Ja1ZVvmL3XBlnAx1AehHHMmbeSf/zjaa65+mI+/fQLXnrxVR57/I88+Y9/MWvmPHJi+aTSaQ455AAWLlzADtuP5qrf3sC9993KDb+7gwULVmDYPmeccQIjR4/mzLOuxjQjapdtAT/5yf786pc/57dX386X0+Yot+mYMYO5665ruOXW++nbpzcjtxnK5Zdfx5133MSiRfOJRmWh93nvvYmEc/KY9fXXnHvOKUycOIMXX3wT07AoL8vl8UfvorEhzjXX3cG0r5YhN/e9FFdfdQ7LlizjiUdeUX7XHXbYliN/cgiLFs1hwICh3H7HPTzwwK1cffXNLFi2knAoxO23XcGH73/K669/xAP338Zjjz/B2LEHMfGzqcydM4doTj6TpsyjvqlR+3KzR9YCXWIBl4F9ijnh+GMoLu7GXXfdz5VXnsfUL2dSuaKeSMTkk48/5a67buCO2+9l0pS5CiD/9Jj9OfKwH5JIJrn7ngf421/u56WX3+Xzz6fSs3ep8sxdfvmvuOTy3zN//krMcEizEaTrbqXhhq0CIAg4kKnPxNVxI1/cRELo0q5HwzA3qwdS2iJNkHZpICP9ITuhdclY/p7cRJGWTI9H//wbZs2u4447/qx27LfdfA2333kP+++/B/v9YA/mzl1ETk4u8+fPY++99mD8+++z/34/4LIrruPoo8ey4/bbMWPmbOZ8vZjGliYuu/x83nr7Yx557EUWzFugoqq25XHKiYdz/C+OZvHiJVi2Sc++PXnw70/w7L/eYqddRnLvbeN49dU3+PHYH/GPJ59i2rRp/PbKS5k+Yw55hSU8+Ne/8dMjf8ykyTN46fnXVcDVIME1V52rvBK33PEAybQVxGrTbL/9ttxwzcV8NXMmnucr1+yIbbdj0sTJ7LjTGH772xv51anHM2TIEObNm8/ceYvYYedRfPLpZF55ZTwP3HcL9//pQUWqPOXkXzBl8hRyc4u5+ZaHqKyuxfWc70lPyL7G5rSAzM+hiM25p/2MhQvnc/JJJ/HXvz3G0CF9GTRoEC+99BYD+vfinXcm8PvfXcVtt93LtFmL8X2Lgm42Lz/7KP/971vcfvsfOPvs09hph5156uln6dW3FzO+mqtA9UWX3MiKpXWQ4RVvzhfewGdvFQBBEUkMi359erLTztuRTKdZWbGS6TNnEY8nELiw+UKUBiNHDCAaCjFlyix80/ye8Fc3sGdlL1/DAgouWh5jhpXR0GixZGkNBmmGDuundsirVlYxZsxIupf2YPaseayqrma3XXekunolObFcZnw1j0RLE6PHDKd7d9mtzGHZ8hWMGj2E/PwSpkz+iqamZgxDoIhHGI8B/co5fOz+HDp2Pz6bPI1X3vyIL2Ysprm2gTHbDaa4MI+m5mZWrqxl2eIVDBnWn2HDh7J0eSVffjmdfv370dSYYlVVnSI/brtNDx78012cc/6VTJs+F98I+rrhKfA+eGAfhg0dRnVNLfMWLGT70WOoq2sgEg4xc9bXOOkWRo3cltJu3Zg6fTbRWIy6+npWraxj2xHDWbBoEfGWWrbbbji9evZkwYKlzJmzGEfAdtY7lx1RXWABmZ9lM7fXriPYfdcdqaqs5eln/0tuDhw2dj/69O7PzK/m8s57H7L/AXvxySeTqapuVN3PMH122Wk0tVXVzJu7ACtk8tOjDmXggH7Mm7+QCe9/xj577sQbb02iqbFRqDlb/bHVAAQDiyMP34dfnnwUDz/8D8YeeiAffDaVxx55EdMOt7ogNftUp5kIm9RJu5i2OF61m0eBCSMEuIoN7qR8xag2wrJDEihiYFn6et+ViclWf5epUDkFTCvwDgj5S27pcO5ZJ1KYl89NtzwAZkh1JrUgqHlNdj7KvbDVd5bsC3TeAurrGz6m7+D74nqU7YV4xDwdX8+k+SnmtKX+03M91b9UlzUkSVIv/rovS582VfwfQhhChGqNcOl+rm5rufTrU0a//r3wjDATJ04j3uIEv1+djKUfvzr1K/MbGXfynEjY4oqLfklLMsUf7v07riuplW37tIwPNXp0+xQbXAVf1f9kcpU/noxNaWrgaVMELvXwzB+5j04ik3Q0DXiUS67zxs9embVAxgKZNAUcTNWtTEwrrLJsfCOl+q/KNlYbPfWXIN1RjwgZhTIEM91R9Wv1AxkP8jtJN5Jwn9xv6++zWw1AMH2Lnxy5D0cd/kP+75dnc+75v2LwkMGcd/5N2OEwg4b2YdjgAUyZMoOKFavo068P2+80mk8mTmbFsgpMw6D/oH5sP3o4U6d+TWNTDVf95lw++GASH3w0mcrKlWoik6W8e48i9t5zZ2prm/js02mkUykG9i+nvKycGbPnU1dTr8IbffuVsesuo9hrj92oXlnDjTfdQ/9B/Rk9Zju1Q1owTxiscluZNLdOFmt2ZtmKLRCADr1YC1AVECygomN9UQCvFTYY3K+chYuWkUrKXKhBdvbIWuD7agEFVEU34fv6guvxXlsVQDjy8L249KLTtfuzbxk3/P6PTJk6jyOPPJBDD9mP6dO+YuiQIdx59wP8/NijSLkuRx71Y0448Vfss88e7L/ffkz6fCpLl1VSXb2M68Zdxn9eeouXX3uP+fOXqg3R4MF9uejCXzN75ixaEi7j3/uIU048hpxoiMqKSoaPGMG/nnoOy4JTTz2e8ePfY7ddd2bunHlMnDSVXxx/HJ9/8SUjRmzLrXc+xPy5S5UrNutBWI/emD1lo1lAebUkT1sRpjoOEIILMTy5kS2uCVDei+yRtUDWAt9XC2wlAAFM3+DII/blhF8cwZ2338f/nXocH344hWdfeJOrrzlXuW7nzV9Cv34DFOmquDiPkSOHc+45Z3DmORdywvHH8uQ/X+LjD2aovXz3HiFuuWUcl192AzV1ccVxkOPA/XdXPIc/3HUfmDG2GdqXJx69j8MOO4aVVas4bOwP2Wuv3VVMdv6ihTz4p0c4+8xTKevRnZZ4kt59ejJ58nRFeHnz3Q95b8Ik5a7KHlkLtGcBcVCahqn6pPZIppWrXnnpxWsZQEsdstrA3cy3i8at++ME2yjl/FfBVflBxoMQuFd9T4VAJBQi72NZgRCNAiX6/XxBKEHk4X96a7Zui2fPyFpgs1tgKwIIcOTh+3H4EYdw8snnssfOI7nplnFccvkNHHjgbhQV5fLAfY9SUNANmaZ+f+NvuPee+7j1thu56prrOezQA6ivb+HRR17GsiOk03Xccds4bvzdH6isbqS+oUVxB3bdZTtOPeU4brntXpob4xQW5PC3v9zLnXfczaTJUzn917+kJZGgsamRoUMHccftD3DSL44mlpOjSGMCSm6++R7yC4poSKWoqKzT8dbskbVAOxYQ8Kj383rx920Pz9KxS+EdSGhMXJ2idmi4AUAQtTY52zRAeDIqjrWZ4p2qayuShAqjCQDwRX3OMtUf9SvBBK4Hrqfe1XRNDJGHVrnhm6nd2d6YtUDWAuu0wNYDEIAddhzGmB3G8Ne/PEUkbHD44ftSWFDCO++O59ijD6W4qITGpgRPPP40xxw7lmQyQa/e5Uz+fCpfTJ3CMUcfqc5ftqSGhx99lONPEOWsgYp9+vbbHyljxXJDCkyMGrkNzS0JnvrX85SWFHHojw5UUrTLVlTzzHMvkki08LNjj6Rvr57kRnP46KNP+fTTSRz385/Ss7yc+uYETz3zMnPnLW0loK3za2RP+N+xgHIPyGIa8A2Fs2gZwjf8VsK+LLSKfCgLredhOqZeYx0LQ9QGVehgE4DRDKFScIkQekVy1hYhKFn9DTwlNRvQHBV2MHSdiQwpLG1gpA1Ip1d7E7JA4X+n76/xpgGC/B99+4362l2AvbcagCCGNG2wZfef0jsPyxYdbJNUwsW2baLhEGnXJ51KYofk9yGloS27q3Q6rbIZomF9fSqVwLZD5ORElXa8E6RZixfBFh38iIVr+MQTDr7nE4lYhOwwLS1xvCCGa6n7yawo9/dwHBfbsohEoziuRyIpjHUnu0naqKNg67y5J54B04OogAJZZINCTR14HSEcKq+CY2IkfUg7areuduxdjBMyt5N8Hs/0MCwDLyyeAk1JUJ4CAQVBXYZMVoZ6nUw2g84R0h41GZaOj5nUfzJjqoub3QFrZk/dHBaQTDMNarNh2M7bPxPqC2J5XVj0bKsBCJk06LaZIyqeKTsxV0VydUzUsAOXvizOq9dmQ9ITPVfHT0VgSaWJrTbo6o+jO6qkWPl+WrlJfdfDDJJavUzVPD3zqXlwNVCTZ+vrFQNWMcezR9YCa1rANy0828EIm/gR8Rh8E+q3t1B+4yzpfGp3bmC6BqQMSHpYaU+B2y7Psgo8Bl7Iw4iYOs/bkLCC7vMSLBHgo49AzEwPkyACIj8zgzEi4QYP27Hx4x4kZUxuEv9HtjtuQRaQEJslOz/RJ9icobItyCYdbooi93iqOJTwl2TtUZlKHSQjt/fcrQYgtGs0NRdlysMKSNCZqlrWUHK6W+cq/RedjB6c1/5n0BW+VKQ02BFlZrjMDYJY8Rq3zsRgV++zsrnbHe7m/zMXuLaBH/OV50BHBHQ6lXRY03MpA3qYJjm2KBWaErqn2XGoNF3qJOtagdyg72d0BETjwxePgomZNvCTHoajPQpty9Z2yMhB8xSMlr/bPm7EwAhJGEGPpUzbdVDBVWNGnCG5QLFhEvENRZOow6PWkDMkHpHJ6pHqk5bC62YLkJJJrUMtzJ68NVpAlVz2iUVNCgtjFORGiERsVRUx60Hq+AeVDYboODiOR1OLT019C83xNG46wwbu/KDaugFCx22ZvSJrgc1uAS/XxIsKKNCcASXYYhgUOUl2LsjjmN7ljE65lDhptSNPYlMZjvKFDZMTzUxdvIwlrk+zeMUka0DXrg3WVg2ULScEcQ8jLYJfnYzzas0x5eEwY6byeDgZT7DKEfcwPA9fvHZArpuiv22zXfcSxhQXMMQ1KHUNEqbJAtvgk5YmPly+nIWOeBrauJSlZK4gjkZfq6dvLsLlZu8Z/xsNECGwHqVR+vYuItcylQqn3txljw2xgITuPN8g7YeoqEkwf8lKXOXE7rxeSRYgbMgXyV6btUBHLRAy8WLghSQcpnfQIddniOdyWnk5PyrOpyyRIi/tYXtptXN3DIuE5ZE0TZrCIVbZNuNTLh+uqmVKcwtVnosq5qhCDvq+ph9WmQKGhB1a0hokdIDCqEiGQkCUUELUwBQVxDUmcQ1EcnyffpiMyo2yX1E39oxF6eZ6xDyXiOcSkuQF4SNiUhuymRUK8Xj1Sl6rrlHekExQQUWhUzY0uRhedrHoaLfaKs5X/BSPvuWFDOiVr6qb2oF7ylfIMHtsqAUUIVgKWvs2KxtSzF1UTTKRCXV3fFxtIEBok1itAp4db8CGGuR/6Xr5+IEI7Vqv/U2Cjy/kzOyxxVhAqwn7ODEDIlJbRI8X2T0NSKe5trw3h+bkUuyJBKwAB502mDlkJ6/DBQIYDJpsmxo7zGd4vNPYzOvV1VQpDoCAA7XtxxUyoWdjCU82YULCVb/7LglYHYUzNIAJW4ojITUkJHyhleXkBA/LcxmKzSFF+RyYV8CoUJQi3yHmONiq2XKnNfugLAEJy2ZeNMxDDQ08UbWKRpGqVfeWWlY+ZrOAGu1FyM4mW0z33fCGCCcGn+KSCMMGlBJRU5ZIj+ugr4DPIAK81rOyvWBdxpdxmck2Xn2ugeeFWLwyzuIlDXjCv+uEmu+GAQSZhxRdWvTUswBhXR9yQ3+v2N+trN82XUERLtc8hJCZPbYgC5gefsjHz7PxMuxBAwrSCc4sKOCS8v6UJptVdQZrfcBdMNzilk1FJMIE2+Hpigo+bIzTJMQvDxzJkpCsARFYkm18i5ABRXTsW+wiwEDGdMjAihp4tounulZwgeI5+JQ7KQ4sLOLnZb3Y2U3TzRHAIM/K1B1ZTVTUT8pcL381cU2Dibk5/Gb5Ej5oaVHEYl3HwcFOCGlRHCEZuaUt6Btmm9J5CxgG4ZDH6OHdiUV1mUPlNVL9WNfNSTnCG8vEzTv/qP+1K5Xj0BTNlDYbRS2qQiJl8+WcVSTi8U5VGO4cQAjGvyillZWVEg6LLnuWXrLRO6bipn3TzrL7qqurp6GuQZfDVpllWQ/CRv8eHXiAbOq9KJh5Nq7KblFVERjjOtzVuy97mBYWabV7l530dx2ySOsCh5pw6xjQaJnMieXwfEMzT9XUUZFMkLIU3NCFZHxDuXPFk2AmAuGloCiSLODqXraJa4OfExQladPVZPHO9z12MEOcXNqD/fLy6BlPEPZdTesNzl3nLKC8ICZ14RBPGD6/W7iAWlUATW80TM/CaDIw07JuZPtwB7rYFn6qR3FhmFFDugtm1QBB+p/nU1CQy+hRIxkwoD+2LVkuWa9BRz5m2vGoqa5l8pQvWF5RpcTVBHBJiWoZ//NWNLN0WY2aBzrK9egcQAgWqYKSPC646HR6lZe3pvd15MWy53bcArrS3ZqH6DS8+uobvPbKW1qxTgGEdU7VHX949opOW0ABhBgYMVOlIwkQiLouJ9khri4vo7fn6oJwknPQ0fkxiOMmzRBVYYv3LXi4poaJdXU0tSb5BKmInomVNvGSLobKGrDAdPAiJkbUwhMvRybfUEId4oOQGiWuyzGlpRxdUMhAxyPmO9gbsIALr2Jmbh6XL1vI2/EECmYoL4KB1WJgJKTqYzZNuNMdbou70KF3j3yG9u+WCSa0VsX96U8O49RTTiAUkqqkWV25jn86E8dJM2HCR9x+591Kt0eIoEr03DBYUe/x9dwqfOEkKWW19T86CRD0Awp6FHLN9ZfRt09vhIu6gUrx69/q/+Ez29tVeZ7PU08/x4vP/AffyQKELbF7yDrs5gHhTM6gQZ6b5mo7wq97llIg3EKRKJZh3WGAoF3/oq/g+hbNtsXs/BiPrarlycoK6mSFVzv0gKjo+9iuqVz5fsrHCBs4MS/Y2QXAUkJZvkvU8dnDhUuHDmBnfEqSSWEgqHbKTqWzhxSOarYi3Bdy+d38haQNS6VvKrdz0sKPG5hOthhUZ+27pV0n5cj79SxkYN/CVu+mip0bcNEFZ3HowQdo9U21Acp6jtb3+2ndHT1u5s1fxLnnX6Q2iQIQZLy7hkFVo8Gs2RWq1LrRwYyGTgEElVZlQGFJPtdedxl9+vRS79P56WJ9zZE9rz0Pgqg2PvvvF3n+2SxA2FJ7iBcCL89E+/m1B6FHOs0dBUX8tCiPiCOZAiI+JGJeHUYIgciQdiCKCz9tWSyM5vBCMsGjKyuYm0wphoDWK9D55qZn4KU9TNE3WIPGosMfPX2Xowvy+GVpGdukHSKOZFUEYkeyE9kAgKBJlDYvF8S4+OuvWexL/FkXdzIdGxrTWvwpe3wvLGAYLv16FTOgd35rGmsGIFx8wdn86OD9Vc/V+jGeksRoSTq4rkdO2FRhbFsh54yGhrjQPSTVvyWeVqJb0bBNJGS3Aa66ZomEr5Jpj3gyrfp/LCdM2BJFzzXzcr7b0LovSptdz6c5kVL3Uz/7jgvX7sHfSv9Z6x7tnycp0T6WZZGbEyYnYiloIKmNMqDnz1/IueddjGwYMwBBCM2rAoDgbjKAILWOJW+7pIBrxl1K3z698LOFVzbbQHbSPs89+5ICCF7Wg7DZvsN3PVhc916+oTICVCzQMBjQkuSP5WUcFMvBEjXQTgOE9p/sGCZVkQhv+z5/qajg43hCEyQNrY2sy0RpSKEmGYXyfSKuxxjT4pdl3Tk0EqOXk1IkRAU/1By94Qu3zt+Aybl5/GbRAt534uKTULaxPBu/0VGCT9nj+2EBWYz79y6mf6+89gHCIfvrLB3fJ55y+XT2EuYtq8R1fYqjIXYc0Y8BPYsxDQG3umZofbPDh1/MpaK2WUnad8sLsduoQfQsLQq82ZLVA5U1LXw+bT6VjQ6W4dGrJIe9x2xDroTV1Nqqsyi++9AhOtd1+WLOcmYsrKQhLhyfbwcI39Z7137S+p+nzwybPt3zTPbZYQhl3QrVhkDuOX/+As4975I1AELaMKhpNJg5u4LNAhCuDQCClwUIm20kO2mP5559OQsQNtsXWPeDRZ6YfFNXavQNLMNnZGOcP/YbwF5Sz0MSgboYIEj6oLgYGy2biXkxbli0gE/jzaTRAKFt2lNGbTHXTXNANIeL+g9i10QjMQGca8iJr/td1+cMNan5MDca5pqKCp5PNikeglKD9AUguFjZCMP6mHKrOGd9AIJKbfVh0txqXvn0K4RnbUlFUxO6W40ce+iudCssUpyYZsfjnYkL+HzOSnyRw9cJwIzsncNhe44mJyKxPEMReJ9/90tmLa3HsyKKN+P7zewyrBsH7DiKqK0XfsUL+s5Dn1dVH+eRVyfRohTDZBzpxTmDr9veQkTE1j7ao4ap4N9aj2/vnirjw3DUHsMmyYh+hRyy1xhywjorRAOEi5TCsiHy1RhsVoBQXFLItdcKB6EXHk5QBX6r6K/fq0ZmAcKW/zndsKQ4WjrO77vYvsn2DU3cO2Qgu9p6BRbRJM/UWQFdcqgJRacWNtoWU2NR7q6u4I3qelo0HXJ1YFCRw3x2Sae4rd9gdha5hpSjpj+ZoLuc8yp6DMCisMV1tQ082VTTSlS0fRuv2VfZFtnj+2GBdQKEg/dvrQD68mdzmDy7Qklyyz9y5NLAMQfuTL+exSpttynl8vz7MxVDX4uJi6KnT1mez7EH7khJXkx5B1KGyYPPfkJ1k4QDDM3wx6MsN8XJP96XWEQvrtoD3v6R6YXitZi6sIaX3p8OZkhnCGV8cN+IJehQYlvcoU5RlU7XPHSV1m8ea485AQjK66fGtc+AkihH7TWCovxIEGLQAEG4BqakDhvm5gYIRYxTAKEnbhYgbLaRnAUIm83063ywWp/FNdkOQNihoYk/DhnIzlKTQUmJdDFAaNM6caHGrRDTI1H+XFfDP6sqSdvhNVWNDdg/meS+AYMYLhNuwHpWk28XhBXaGkuzHAyWWQbXN7XwSH2VBgiY2J6VBQjr7Flb1wnrBRBkd28YTJy/irc/nk04vfdFAAAgAElEQVQ6KJAn3oGyaJJjDtmDkvyoEhKLO/Dm53OZMreKtG8QCkJmg8tjHL73KHJzQiqAJjvoF96bxazFKyWjUsXmTd9l50EFHLz7KEKBB+G7AIK2tI9nWCyti/Pk6xNpSYsXUIOLDEhY84voFM41AILC45n6K2t9v/awcDuoQXMqdIBuZN8CDtt9JDHxQBo+C5QH4UJVu8Uy5f2tLEDYuobJxmmtcBCef/YlnstyEDaOgbvgrq6kD+a39SBY7NDQyD3iQbA08WpjAQRZiDMqnEkjzNc5ER6sr+XJqkoa1YQlux1dAKpPooVLozF+2asPuQJaRIHNlN1V1/IBVPVV32B5yGRcQzOP1K/EFUa2TPYClJp9jKwHoQt63pZxizUBgq5BokmKPhcpkuIBinQo/VS8A+O/WML0BStUzY68qM0Bo/owclBZa4VC4cxUNrv895OZrKiJY/sOBbkWB+y8DUPKigMtBSkOBktWJXnr8zmsqm3Btkz6dI8xdo/hFEQ1018t8OtM/xOYYhD3TSbOrmDyzKWkUmkV7lhdwXS1rdXZSqyk7cof5HCuTe5VHoR20tdV09Yed7rQVXG+zaG7DqNnt7wgf9Bg3oIFnHfehdqDoNIcpXaKQU3DZuIgFJdkPQhbwvBzHAEIL/P8M//BSQe54wH63hLal22D1F4QgCBZCjqDQdjHIxsaub9/X/YMS90EPXn4hhOUK+9Kq8mkIqXI1T5IxBSZG4vxx9panq1eSa0rZK6wzmwwPEY2NnN+QQE/LetOvgp9+BjfFOvcoAZq5URYHglxdXUjTzbWkpbsCsMj5Bm4zWAksyGGDTLyFnSxBghF9O+V31o8SPL1pU9eeMGZ/Oigg7SvTRUI80i6JlV1cRqTSXoUxOieq/tnJk9HXk0W/7hjUFUTx/FSlHbLJT9sEmrNdNAGkNBAQxqqqpsIhSxKCsLkhXX4IrMwt5cd1p755F7isahpTFHX0Kw4M5v28IhELEqL8skLB6FJmTd8X6U5nn++BgiSaSi8CNc0qa2DWV9X4IhPpYMZpJ1LcwyyGLIAYdN2jW97WhYgbBnf4bta4Yc8vDwLX7YcwY5+aHMj95eVs39u7qYDCOLGdV0SlsHMWAF/ra/j0RXLSFg6jim7E9txGNnUxCXdCji0e3fy/DC28iJ05RFwEKI2V1XU8kxLE04WIHSlgbeoe+k0xyIG9C5YCyD4XHjBWRogKHadXtIlfi7AVLJulFS4WvQzAbvVrAAJN/iioaF+7wQJNu3UplFeAlneA0EuFfjPkHTW31QZYCvXZirjrP/VXXFmxuORqdCa+W+tg3D++RepEAOyRoslFUDwlQ6CI++bBQhd8RG2rntkAcKW/72kroGfbyjGtSZfefRpiXNPSTFjC4oUaVEzlzeGB0Hss9pVqZ2lkCLC7NwwdzdU8HRVMy1qUtZkY8t32KU5wRWlvTikWzcirs75/vZCDh38BqKDgMHs/DBXLlzBf5NJ0krcxcN0TQwJMaSyHoQOWnWLPV2+dp/yAgb1LdIVR5Xaqw4x/OK4ozjphOMDWQ298KrKpGt8/rau9tW/0Jk4qsB5G4GlNuTbNSyicnRbU3vFq7F6XKzJF/hOQyqioyb/tl6fwS5tL1zfn7X3sPau1Uv+6rODUIWEZRzXZdKkKVz/u5vUuFJ1ewKAsKrG5es5lSqjKQsQttghsvEalgUIG8+2XXVnz/bxREkxpMSEMQyHkkSCW2N5/KK0B+Fg3CuhpA0RIOpAg6UcdIttMCsS5r76Zp6rXkmjocVqVCnnVJp9Eimu7N2L3fMKCKkaEZldXgce1N6pAhB8k89zw1w2bwkf4yjhJNlFWo6B3+RjOlmAsIFW3mIuF4BQUhxhxOAeGKqImAYIEvvvVpTLEWPH0rdfXyXZv2bUvT3uS3v9ooN9RXkPOlMYSmf/dC0jpyOfqa0LQLfCdU2qq2t4570JzJu/QIVUMt4WF4tlFS0sXlyriqRtYoBQyLhrL6dvn3JcVYeug/6Ljtgle+63WsB14blnXspyELbgPiJZAG6eB2FB9+JF8FQlx2utGKeV9yI3qL65aQGCFHNxSZg2s2M53FZdyQv1NSSEna1wgENOymP/lkau7dufHXILsYTMFZTq3TDioonjh3gt1+KyuQuZa2qFx1aA0OAqpcfs8f2wgACESMhlx+36EpK0XlUJWC/S4gWwhZejsgLW3smvHS5QfrZ2jNKZvtLZ9WpT8w7avu4322xYtlKcFB6C15ptpMMnScdmxtdLaWkSPoIAhI4Bqc5xEGQwG9CttIRx14qSYtm35klnq7p3doB/l5tsTT+W5/r8++nneeHZV7Mkxc6aeyNfJy5TN+Zi5Oj0PpnkRJToQiKc17svpSQVQU/SETO53xu5SYJR1KQi7UnaISbnxLh51XLerW8mntmF+JDruByfTHJR314MzQmrMISe2FeneXW4rb5JyrR41Pa5cuEi6mwp+SwqeS5mwoSmTtSk6HAjshdsOguIZ8ChZ1mUIX1LlJdMKyJqDYNvX3LXXvi/a4HrKEhYfS9NUlyfxTMA+JvOcGs9qb02rraeyqhQqk2av1GxKsH8RfVKkbIzR5cAhPz8KJVVVd9Sb7qzKK0zr/N9u+abHT6zeGQ+t6jv9enTjxdffIXnn3klCxC20C6gpsGcNOTaAUCAqJPiJA+u6jOQPlYqmDBlstyAhbcD758BCCqGa/i0WCHG5+Ty++XL+SzepPKoJU1LJvM+yRZOxOe8QQMp9UUTXnTtO7+TEhjUZNnckmrmjsoqHEvCCxaiPmfGdTVHAq9KB14pe+oWawFDZ8OYaQb3K6a8NJ+Q6SEu8EAlbPO2vCPrZ0dxyCZ5szUbZRomKxuSLFi8iuaW9cQ+7fll7G57dcQ06hbGWh6E6uoKXn3tNaUQt0XabpN8oI3/EC3HuSbgikRzOOHEU3lv/Ec88/RLWYCw8T9Dp56gUo7CPmaBlHvWtwh5aQ5Op7i172C2UdwD2c2vBgitAzMo7rTG2JJuoLRXJVohXomgX8jOTP1Yzs4s4Jl4aztNVx4EORQ1kUWxAm6uq+Gx2pWklS6Bfo48qm9zgrO8NKcNGU6hvJApxMWgDR3kTTgYLI/mcNnSpTyXTmnXqBDLXbDiFn7SV2Ahe3yfLKALLIVDDn3LCundS/QKdN9br837xjbF1r546aiCYkisrG5h9qJVeK7YvPNAfgM8CAbFpaVcO+4SaquW8uYbryuFq7aHnqc6jD82djfYau+vS4q0dYtBJBzmZyeewYQsQNiiv6taoqWSY5GutiiH5acZkYzzYM/+7BIR4qLAPw8740EIkISsxSrtK5hLpaKb4l8rQKGc8nimFoVxLQMnIAA6nlS7c1X2mPzL8zxVCtbL8B30L4I/UgESpmByd10DU30PRzIuAnelPFsKSm3T3MKlRd34aVk5eSTAlTLT0paOza5S3nlyKMI5X33FlLyc1m9nOBogkFTxjy36m2Yb11kL+EpvIy8WontJmNxYmGgoGsggB2qDnb11J69bXx2ETt5+k1yWTKWJpx3q65KsqkuQ9oKMjQ0YRp0GCKqaYwAQ6qqW8tZ/X1cxprWP9hSiNom1tvqHtBcTk/req9GgdOpwOMzPTzyD8eM/zHoQtvBv7lvgFsgWWYcQJJOhdzLFH/KLOLxbQZCo5WMj5EHFY9QyzQYk7ShS3DDleaSctP6TTJBwXepdh5W+x0rDoNL1qZdytIZBwhHBGVdd7/ounsoDR1V7004DgRT676ZvEfccVoTCzAuFSBm2rvwYgJJM1lnIddkj6XJlj1J+WJiLoYo56TBER46EafHPdIprF69geSy0egeZBLPJwsxkTHTkptlztwoLKIXBQMjHJiUVmbCtsE5ADHbBW8WLbEGNlNEnZaiTjpRNF/5OmxTMDWhnpwBC5nlFPbpx7biLqatawttvvKEq1GWPjW+BjJV9zyMUDnPsSeJByAKEjW/5DXuCqCi6+SZGJMPghm6pFGcYJucNGEA330dC7xLdb/E9VVo23hKnyk0xK5lmejzBorRHVTpJGl/Bcd+2SBkQN02aTCH+ZUCkJrmuKxEgs6y3YgHTQG08lDNQ9zSBEV6gpCiTe45jcnBzM7cNG0w/U9e0W70R+A53pvIkW0r4ps4yuK5uFQ82NuNYWvVNOUdbDIxmVddxw4ydvXors0AXS3VuZW+/Yc3VY0WPVr1J76rR02mAIM7N4h4lCiDUKoDwukpVyR6bzgLiQRCAcPSJp/N+FiBsOsN39kmmjxOVtABN/pNDtAX6JRIcZZv0i+WyxPNZ6EKVm6YpGcd1RPUwRNwyqLVN4paFa4iHQQL2wS5BkZYzZZkzLOY2jfy2YdlOFTkhK34jIKw4EPrnIgkti3x5Ms2xqRQXDO5N/1AICXvo47sBQqbmw6xIiEuWLeVNx1WsC3muIj02eZiJbGSys11sa7xOd50OCBVtjS+5Udss0sqBONJaYf4NfWwXAoTXsNu4vze0Ydnr122BLEBYt4025RmZJbLd9TiQMXZCoqgYZCkoCVnNIihI+4QMj4RpKEVBKVOrOTySYWCqoknf8M8pPYXgaWss0JkU2TaLfTuNCjiOa5ko4CVkZNtbQb8TxDzCWqsAl0FJh3MiIU7u04sCT8IX69ggKJxh4Jo+r9s2VyxdwkylIKllY5WkbqOPIcUi2oANrZaXPb5fFlBCCJi2QU5OhNxYFMnIyh6dsYAeH/FEkpaWNE6q62TRswChM99jC7lGpv9QSDwIp2U9CFvAN9Fucr37zSzRsmyK+JEfNlUBFSMi5L/ghNYVf83AqyKjKuaf5gwIQMigAyVD27pgtl2QZXnWjn4pBRuyLMJRWXQlYKEzG9ZevpWc7dqHil9qGqUoGzq+TSrt4ThpzUnww60qbZbnsXNLinFlJRxQUExIeRq+W53O833Fb7jbiXNrZQVNRljL6mr/BFbKwkt52I6J6wapcb6AI13YJ3t8Hyxgqv5Z2j2HHt3zyY/a2fD0Bn1WPeZk+CXTpqpuWVlVTyLp6DTlDbh3FiBsgPE296VZgLC5v8Dq57eCA51nhIjCubZwsUyMkKEKpehFTjJRvrEqfyNqaMnA9jxsU+rOG9hmiLjvkFqDxZUp2JJZXj265Sb54fZ57Da6Jz17lVCQV6TY4ZJAsfbR3lIuZW8yZWrTnkF9c4L5y1by7pRVfDytjqZEKLiNyssg1/U4uDnJNQP6MSosTPRvBwhyhVR6WBmJcEVVJU83x1UGBkLPDOyiAJBvYYkHw/EVCdIUQ4rssiIuZnlOW06v71xL8nLC9OtTRHFRDqbUHgnIs527W/YqDcozDE/xyIVoSrrMX9pIXX2LaDF32kidBwiSsVXWjXGtHIRsiKHTX6GTF2YBQicN1wWXCSBQzH3Rk1dFUXwhZmOEbVUaWQiJQuwLTglIeLIUaqCgteN0eEF0RcJeSAECCSXkmT4DI1FGRXIYmBuhKBQjHIIZTpqnli2n0hWvghD7pBEyOcii7tAzVsPVv9qeH+9ZRLecejBEfCn4J4Ng2r57O3wDQ6kZao+FWo4Ng5QfYkVTCc+8F+eGv08i7RUgEjc6POJTlHQ4KZnkkiGD6S1eElVhr63LIrOwGyQMg4+jES6dM58vxU6K1xDCN+UaaZwUjMqo7Ol2WK68pq+leVMehqRzCJNSPUNc1VnQ0AVdeqPewjekxxuEQibbDO5GYW5EkheC/vtdj86Gl9b9YdYKzYiQGSbNKZi3qJ7qumaNH9YgE6/7rnLGBgGE4jIhKV4UkBSzAGH9TN51Z2UBQtfZsqN3UoNNTXAGbsjDCIERCXgDbbUqWv17Wp5crhHvQNT1yTVNYoZB31CI7QyD4QXFlMSiFEZtSg2TctejMNlCyAspVcE5sRyuqanitepaPCMUAASRHEpTGK7m1tO248SDuhHyarFJqjoLalqWcIUSU1jrLb8BEOTcIMXSlPRKlSeh1mHXiNDgD+DB1xxufvhz4mkBEvqQ+0vp6kvz8/hFWTlRRZgU0lRrvo12gWLQaIW5L9HMH6pWUWuLt0DuL++iPQ9yr9VO0UxoRcvxas+GgZE2NU/BVbUfFajaEDdqR7999vyOW0C+r2X6DOnfnbKSaGsIrjWXV+G89oBeFiCsy9pS/E0PxNVnan6Rycp6h9nzVuGI/kknshuyAGFd1t+Cf58FCJvn46j1Vh4dsUBSFu0gBtjanIyqocbtsk5GXZciDEpz8xkUi7KjabGtFaKbbdMtGqG766qCTSGRGnZFgFbUCw2ErqDSFTGYEbK5dFUF7yTiyo0oXgpZJcPU8+uDC7jhjBEUGisVB0EWTseMsrwyzYL5K6muTysuQdtDcRzXWlot08OwXIqKowwbWkiPglzCfhIPB48Y1c5wLvjjbJ6fsAwPHW6Q5VvKQe8dTzKuV192y40o/4iUtNaHnvhFj2FBNJfz5y/kbfFBqLCCh+WFCONQHstVcssrm5uIS7qm3EWhsNWhhVbCom9iiidB/iSydRs2z0jo2FPzcy2226Y7YSnW1KZfiGeosLCA0u6la+lp6DBW9vguC0j40aa+sYGqyiqE4yOjWuYOOZKexYx5tdTXNQcehI5ZMwsQOmavLersLEDY+J+jdXkKWPYqbCCgIGzhWzq9SBec0eECT4QH1M7ZIDedphSDgfn57F4YY69QiHIrTB4mJa5PgZPG9MUDEAgWKlCwZopf5nbxUIRHk83cVlnJEiuo56Aqt8UZ07+Jx36zIyN6tSiBIWlJZUsBf39pKv96u5KaahuPyDc98e2FGCRe6aexQyb9eiX4vx/15ueHjcCmHss3SJHDe1+Xcc4tn7OoNqygi35bg7y0y8+SCX47ZCB9DRNZB1QxKAkNSHQgZPOK43Phonksz8lRHhDDS1GcNvllaRE/7t4Dy7OZSpoJDTVMrWtiWcolKV4akaJWstBr5stLOMJ2LUTU0UuKLdfO6tj4fST7hPWxgEt59xy2GVASyIBp4Cj/DBkymAsvPIeioqK1OCYZqu/63P9/9xyxUktLnH//+1n++9bbgTq6Dju4hs3CqiSLF9Wo0tod9bRlAcJW3K+yAGHTfLzAWyebW4gZ+LJxNg1EqKottV6GZI7n0s8w6BfJYcfcGPsXFtI/FCU3FadbOkFY3OJyI8NV0uSrBYqCd1lrwyQbgbRp8JUd4sLFi/nUd0mbeucuHIhCq4YbTu/FLw8uJmY24xFlYXWM3/55Fq99tIpkuC+iliSJid/kM7dTOlZkmNVEIrUWkhSmF3LCwWEuPmVnehZKZlqaZrM/t/6jjruenqcmIO0f0NJG/eItnBeJcGrvXhQF/ACJHoj/odrO4a66au5uktr0YV0P0k2xt29xU/8+7CRoyIf6kEltJMRyQnzU3MBndfV8lYwrjYjE2gkgATiRHZPpmPhxH0NK3wagZNP0kOxT1mUBAc99e+YzqG8RZhsFT+nDp59+Gocf8aM2Yltt79bRJW1dLfn+/n7213O59PIrSTsyt2iA4JkmlQ0Gs2dX6PmqgyTfLEBop7+oWJhMRJaJH7hqVivFbTmEqI0LENobmFvOu2/cYZ7JV9RJhb7l4UuZZlndhYmoDukj2h6W71Lk+2yXk8tuhQXsF7IZZNh0MyHX8whn5IhlSZTCSmrnHyzCrVKHq5dvXYJZQQAlrb00ZHBjRQ3PpZppsEWvWbQRPCwjydgd4vzx4h3old+itAkq4wX89sFZPDHexfVjkgirBJU8iSeoWP1qUKDBieZGqP/3fAwrpHYamVc0xWfgLeGyY3O58LhRREMpDNNmfu1QTr7xYybNbcY3oxkXCLbnsls8wbVl5eybn6dVFj1dJ0JqL1y5fCkTpFy0L4JPPjEnznk5RVzSozulsrCrM3XCQtowaAiFaTBNZnge77spJjY1M6u+kRrFi5CG68iqLDQCEpTcUhL8hIuR1r6N7LH5LSAAoV+vAgb2LQwAgh5C8gnPO+9cDj5ov1bOiqKo6mSggISqGfpaxEun7K6RoqvSawMW/zdyYYM+oM6R+dwTbN86vjpqGTUjiDaJjBVT7tfhNbejj1zjfMVLbmX06PBe5pg3fyHnX3gpruup8aCaZlisajKZ+dUKPaQzY3s9W9F5gPANJcXvF0kxHAmTlxujrq4ZAV7KPaM6X+dTRtbzm6z3aRsPIMh7tqflrRnz3/tDiHpSVlAW1ZCPl+Pjy0rXahKJm8si5lPi+OxumRzWvy97RnIoS8TJdx0iQf5xR2sUZAaxXvZM4kaEp9PNXLhiFc0hzfCXxdU3W+hXVMWzt/2AUWUJLFpwvByenpDmggeWUZsKt8Yq5D4Rq46hJU0M7tOdaEh7IGSXIZOx1JAXClNz0mFeRZJ5q2KkUkGhF71cM6RoLg9duh37jIpheQ4t9OS9hT05bdzbVDSKFyGTagW5TpqTHI+rBg+hTDCVlyZu2zyScrh+ZSU1CiBpPechLY3c1qc/h0VyVXXLtaWhBSx5vkHStmixbJbEwnzseby2bAWfNjRTK9kPQmyUwlLB4iA2Ml0TM+nix+VDZUHC5h6zbQGCkHR1P5e0X5/zzjsnAAi6D0mtkOY0LKuoJplMU9a9iLKimOLWSBljWaCFYyMgsiXlsGhZJalUmr69e1CUFyYkOcZqEVXpLziOT12zw5LlqzBtk/49SyjKjapzVnNwvntey4Qa5a7NaZ+FFdWsrFilY/6baN+kR41BNCfMkAH9KMmTPGr5qSYWtwUIghtU4NO0qG22mDFtWVB3rWPzdxYgtDdywjY77bEtu+wymmULK/jsg6+oWFERAISOGXhjDsyNBxDU8tFm95UZHh13UW3M99f3Xnvy3/DRaojb3HCUJpAfNfDUNjhzX5nUXAock32iIcZ2K2bfnFzKHZdY2gnEgnSzZPIQDYKOHp4SBhK3vMlsI8zlq1bwdtIJPA8y89nkRWq49qQenH1kGWHq8H2bWSuLOO/OL5kwK6J2DgZJcu0EP961O8ccOpy9hxsUhFIB+JFX0t4QSYkSgOD4JtWJEt6fkeTR/8xiwpeNpNUuHCJGLUfvVMP9l+9NYSSJ65vU+v248fFK/vziQpKuTjs0VfphmoEtSS6OFfDzXr2J+mmWRnMZt2wZzybjOLLzUp4XnxNTPuMG9qe/8m5IhYlvAlPZ9envbCs9iQbLYmUkzCfpFP9ZVcdHLQlW+gIuVnt+FLwSYJAQ6Wb5GEHlq45+jHWev3rpWOepm/kEnTy64eOjM6/REYBQVZfkzU/nsrCqRomE5Vs+Ow7rwR6jBhAKh1R/FfmvBctrefOT6VQ3ay9BTtjngO37M2ZYP0zVxyQZ1+fLBat4b/LX1EuND8OlZ26IH+02gn69StqECNcNEGRrKNUSX/t4DrMWV0sh002aYZsZGfJe0ZDPj3YZzMhBvTCVV9PMAoTOdMyOXiNEqNzSXH52yiH06FtG9eJqXvzXW1Qsr1bodUs6Ni5ACJYOiZOL/r8qEdxaxWeLMYNMembIxktrz47sHsUVuVptsDNNNfCiPr5sMuxgg6DS8CyirsfIsMVPunVjbDTKYM9TKYuiKqhFfgKhpCDToePwwMdV5ZwNWiyLB5oT3FVTQ50pEkbanWmR4pAdktx9wRAGFaeVUmOLV8qNjyzj/ldWEvcK1PvnWis55ycDOecn/eieX4/lNulUQdVEvegqSqNvB2RDcfuHcc18ljX04YYn5vDvtxaScLW2QZGxjGt/kc8Zxw6TpRrftJm4vD9n3vo50xemNIhSOgo+YR92aIlzSmERA/Py+TCV5OGGBpbbUiVSL1U93RQ3F/fk6NwoUUXWzIQE1rJasKYpUqPoJUl1SmFoWyZLbIu3PYsXGhuYWFeNZHyrlEkBP5ISKcUzUxZ+0lPchK5aH3U6pjiZhE+imaWe23ESWGd6Z8eu0Z6gUMzGTRqqja24WsWWvlmBt2P3X7+z1wgxBB9B3PSyAT7v3HM4+OB9W0XE3pu6jA++XBzIkWoAVmg7HHvgGHqWFipHUVPa49WPZjNzcTUIJ8fTnqaB3UyOOWA0ebGI8lDFfZPHXp3EitoEkhskfcwWmfASi2MP2p2IhOzUsS7gJMXRTGYvr+f5d78kJYBY7tc2FLJ+ptjAs8RjpsMtg0ojHLXPduSLTLWRBQgbaNj1u9w2Yejovoz9+f4YVpiZn3/N80++jm1GtAchIH+s39027lkbBSBkNkSGTzhkcfyxh6kF5JEnnscX153MuFvQIfHtE44/gm2GDeL+Bx+nsqpBlTXOyBR3tKkqbhfy8PMsfJEfzMwbhqQhwg99m7MHD2KHVIJCx0HyAxANeVl41Qou5L4NCX37uJ5B0rSYahucP28+X0SE0BfUbwAKY9X87aL+jN01SsRPkjKivPulxYnXfEKN0UfJOFp+nKP2gPsu2ZNCcwmWEQ92O1oXwfD0Qi1uWPGIqIzJYLaTV0mbMZY09ONXt3zBhzMa8P2w2vF3tz7j2Vt3Z9dtSrC9NC1WLx5/z+D8ez8g5cX0wqwOS6Vs9ko0k+eg1BOrQ6GANwARx+XHlsvNg0cwsFmAi8RNNflzfQ4F12S9l/pOlsX0vEJeamri0SXzqbJkvRBkp0WUZMdppmx8SYcMgOT6POPbzxFwYGKHDHr2yOf0X5/Ev555nWnTZmJtYfUEZDkUN/4lF5+E74X5+8P/pL6+SXtbPHFYb3qA0MrnUgDB4Lxzz14DILzx2RI++3qpJgIHHyHqOfzsoNH0LyvGFC9SwuWF979iYWVjsL7rc3sWwM9/uD35QQihyTd5+IXPqBHVoAAZCUguy0lwypH7khNavyqSOt/CYtriGl6aMIOkb+kxI112k37zIAyDR7/iED/ZZzu65eeqtWnLCjH4PkVlJZtBSVFPINpV5pMby1HxJ0fqYLd2gc4Mf33HcI7FgYfvyg67jaC5McUbz01g5hcLMJTsl1fnEaoAACAASURBVDyyrRdBs2xCop6HodqxTiDamaZ9yzVdCRBk0Mg7RHMibLvtIA7ef1d+esSBDBzQmwf+/CzXX/9H/LC43jddzG19TGX4Luecfhw3Xns+yytW8uLr4/nPf99n+rS51Nc3avGVDrj5JXWRXF/VThCdAcWGB4pdn6NzI5zVo5xhvkc4nVLeClPNEgIQMrtTSX1cn5Z/+zmuZ6qd9s2rlvF4U4p4SDgRtlpEo1YdZ4zN57qTB5AfalHb6fk1Mc6/5yve+ELUG2NqXRxWVMt9l23DviPC2E5SeRlcI8TyVR5TZjcwe2GS+oSMGYeCPJ8dB4YYPayAksIY4qvwjRBp8nlmYg7n3j6NRhEmMmS5WcUv905wyxk7UVyovRorU4O49E+z+Pd7VaQD+UjFlVDjRRdh0tvtQCzK9xQ34fpu3TghL5eQ6yi9B1nINIFz/Q+Bq9KqtGFSFYnxjpfgr1WVTGppwWn9EAKIUKEGo6XzAFd5qyyDoqJ8dt1lW448dB9+fPC+JFIOJ595PR98+EXQH9a//Rv/TBvfT3PrTadx+snHs2jhCl54+R1ee+cTZs5eQGOjVtnb2GTOth6ENQHCNz0Ii6rivPLxLGqbkypMJ59xZHk+h+w5gljExpIQg+fx6bxq3p8yh1RKEw/FGbDTsHL2HT0QW7i5whjzTT6YUcnHM+aTSEmIwScvYnLAmH6MHtIboa6s32Eo72BN0uWF8dNZsiqO7wnZNlBUXb+bdMlZMp2FLY89RvZitxGDiIicu/FdHASzDQdhXZ6SNZvYeQ6CkloWgLBplRR1ERuftOFQXlbAnnvvwtzZi5k5bS6OQqSdK/whcV9xXZb3LeQnvziYHuVFLJq7kpefeoemVXG81p1zJs7p4wlDPRZm191HkRPJ4bOPvqC+sTmQit34g25DAMIa07AHYcNn/7134+c/+xG77TGK3r26Ew7buJ7Hnff8k2vH3YuVo912mzTwtq4h5buce+Zx/H7c+UrGNeW4VFTV8fmU2Tz/8js898LrpKW6mQyiYPFRfag91TZZoKImXkyDCrXGSSqh43BiXgHnde9B/3QKO+MO7xj2WNebtP6+CZvXXIcrli5gcSii2demje21sPfINI9dsyc9c5Yrz3bcK+KeZ6q47ellNKZzEP5E1GrgiqPzOf+4/hSY9cpjECfC6582cO+zXzFniUd9oljFccUOlpmiW6yW3fr7nHPsMPbcvhchM60W/1XpwVz5l4U8/t/FaiEW0lOf6GJuP70fx/6wXKkYukSZWjWMX/3+Y75c0KLJna0dTM/ApqellJWWgelwsGtyc68+jMooJGakq9fbSgH+aF3cxBdiUmvbjLfD/KFyGZOamnFas05QxEWjQaSdFXJZbzAv7bYtk4JYlOOPO4zDD9uHEcMHUVJcoH6+orKaE8+4jvc/nNp+neoOANQOvv66TxdvkZ/kthvP5JzTTyQkBbgcj0XLqvhk8gz+9fTrvPX2R3iZMRGE6NZ9446d8e0AYU2SooCHpAcLqlv4ekkd8XiKspJchvftRmluBDsADAL8G12D+StqWbCigXTaZUBZjGG9upGfEwoyFdQAVuTbGUtrmF/RTNQ2GFyez9DeReQowSa90fzOMuW6B6t/S57NsroEs5bWUbmqvmNG6IKzpS5LTjREn9J8hvYtIhaS9U4Pt3nzl7RmMWhMLt5Mm7pmnxnTluLJ/NdBCt0GAYTNIbWsWKMhn/7Dytj3oJ0o61NG48okz//jDZYtqcAyQqq4TUcP5Za2XHbbbwT7HbIbtmny4dtfMf7NSfiOGRShaXNXRVrzGLXzNhx01D5E7BAzp81n/LuTqVpaTUgJunTwa3Sw0RsCEGS2Nk0DKZyy564jOfNXP+cHe+1Mbq4d7ID1Tjjt+Lz/0ZdM+HiS1v8Xnf0OtnNjna6jgB47jRnOgfvvQUgiIK2VASHh+kydOpcHH/onr7w2Xk0Uqi6gxKYDz0Dbtsnm1883dGghWEMkZ/so0+aq3r0Z7jhEWusfbJy3kh6z0LK5bmU1z8SbSSlQI2xkm7LoEu44fyTH7pmD5TcBeXy2MIdTfzeFuVV5+CGLkJtk3+FNPHb9TpRGGrBcl5RZyPOf1XDBLbOocgrAFKAnWQ7poI/qSVLuOaJkKfdevAs/2K5IETXTxFjaPJzjrp3A5LktwizEdtPs3HcBT924H7276YW2jnLufTXNbX+dRiIdQgvtaz1FbUtdmVLGRE46zTV5eZxRWkq+K3x07b3rTMbHml9Be3xqQ1EmRMJcNX8ucxwP19JuZAFKVsrEb3GDopPr6MkKGBiUluZx7E9+yMkn/pRtBvcVmKSIYTrNzaehKcFz/3mH+QuWttbcaNuuzhBVu6p3ib9ECn4dvN+O7LrLGMKWhF58XNfB8S0SKZ+PPprCg395gvc/mUZLsyhWyNF5T0t7be8IQFAEXyzSgedJupLqTsrLKeFD/d1kKZAAieiKSN+RNF/l05JiKKpH67GTWdhTqkaBBOvk3CAjq3WtWJcrIfN7LVks98qEsLrqW63PfSTt2ZIUZ02PUqm9XlDoTPrf+RdeptIcWwGCZVPX5H3/AYJWUTOw8yyGjxnInntvT7ee+cSTSRbMrGDC659SXVGvPn1nBqTjOUQKTE741RH0HlBObWUdzz35DksXrsJS99S5pasP2Ql5DNy2F3sdvCO9+5RhEWbB/Co+fHMiFQsrSKWkdp1OpOk4ZFl3d9kwgOAzYGAfrrz0NI4YuxcFuWGEf6F0+zWLLZjYZdLVUEdl0W9BhXGCTF+1wMinEfehPiQvXpKixMXokUh4fP75bK6/7SE+mzRV5AAC0ZA1beyJQqIAhAACmb7PgESKm/r2ZWwkQo4re+526iav+1Ot+wztriBumfw7neKG5StYaMt0phday2jixP1tfn/6NpTG6lWoa2VLDy67ezpPfxTHswpUFsCgwhruv3QM+41ysP204g5Mr4hx5h1fMGluriIhSqgiZDp0L42od62sieOJtoJpEKGOI0c38MdLdqOkQCYal6Rfxt8nhBn34JfUNUvc2iXHWM4ZP/K5+v92Ij+SULUaZjcM5KI7p/PupAR+pqR1G4AgU7Z4EnZKONwxqD97mJbiNWg9/g2HnRrmaIJnjR3jT36S+5cuo3p1Z8aWFNFGX2skfOcj9Rg4/NB9uOyikxkzciCRkGhJyGZBvEtBqFOl6hkI/1GFSIJnZbqiOmut52T2revuFB0/Y41HKTKnnoFsQ8tvy6ZAEXllPpWBLZLWshtvTvHO+5O55faHmTZjDr4iJXfd0SqU1E8Ex4NWipYAHmeddQZjDztotQ5CQEZtrS+minfJeqzbrOdhBSk12FdGlr9npq4AQLSZdQM6riqIpjJlVJ0RPU+s37H6e2syrn7GxpjXv709Or0zM+9lkjQzWqZz5izkgouvCDhYWhMEy6amPs3MGcvxJJ7SwT3rVuJBMJBwT2lZPmP23pbtdxlKJBampSXNJx9MYdrEOTRXN2sGtZEx4Pp9dg01fdKkGb3bMA776b5YtsWXn87mP8+Mx3csLNP4BncqkNDBDbkU9sxjrx/swHajh2HbIeorG/n8g+l8/uksnLTO9d0YHWlDAIJMo/m5YfbabVtOPeVo9tt3dwpyc1r5dXoQ6omktrZBVQRTk69KOdtSDllc0hTl51LarVjt6DKH7BWEVNTUEufzKTN4+OGneOeDaaxU5U+D7Ueb11CIO+bjxcSNoBUOpX7CSZbNb/r3oXc6rXaOG+vQdYhMFoUjXLx4Ea87aVK27BGkLR7dQ8v41y17sOdQF8tP4lLAUxPg7Dum0ewXqZ295ddzygFRbjtrGAV2LaZvETdLuPPpam5+cgFJr5sCuqWxBi46aVf22KEfjm/wxkfzeOi5WdQ1GWp3VRJayB1n9eW4A8sV6BKRpTl1/Tnvjpm880WjsrOQ2/rkzuGvvx3BfqPzsbwwTVYB/53WnVOv/Zhm8SKY0lfaehB8CtMuF+XlcVaZCCPpcaG8Uh0UcFnXd0gZIT6LWFxUsYIp8ZT+cgLypb5Fk4mf0Av7twITtXD49C/L58eH7cUpJx3DdtsOUbtxBQgyfcHwcF2fyopVpJPpVmGfVipFpkp1mwa3Yu91/CyzAK3d677r+rXtIqFRGQtFhTkUFZeqMJvqa2rD5SlQ2NTcwvsffsaDf3mWiZ/Pp07xEjJetK7p82Kxnj1iDBtQEizogWF8l91225WLLjyTgoK8YNFeDaHWnDl1ca81N4DBwt2GGbzaPm3SsoNbKu2FViNJ7H5tgNA177uu/tmVv5cWx+NJnn76BZ586t+t2R8ZgFC5Ks68uSs1QbiD0/fWARAsg9zSPH540C5sM2oARsilurqFj979kumTZmMkZKejd1qaiN2xj6zOzvE54rj92Hb0EFrqE7zw2OssmbNKxVyVLG57Cl1qkPk4wmsrjrL7fiMVuTEWCZNsMJn0yUw+Gv85TkuGQduV3UIP4VAozNEnnsb74/+/vfOA06us8v/3lrdNn0zJpEwKJCEJNXSkhCIgCGIXXVFU1AUEFcT6d1mxLbZldWWVdXV1FZVVWUWkt0CQmlADpNfpfebtt/w/53nuOzMJEzLzzmQygXv5hJS55bnnPuX3nPM7v7OSP9zyF5x8wEreU7aF7No8E8sXd5XLsqMWc8WlF3PicYdTU1tKNBLRk4nn868//Bnf/OaNGLJgFWqPT+yrFHk32Svm+NhH3sO3rvtKoLSGEkbp60uxbt0Obrjxv7j73r+Tzfq4wlyS1CQ9Q+70TCkk5Mv8FJcdlv5ZXTbPN+uq+EBFlWLdD1UnLLK5r3WZZ5C0LW7OZblu+w6aY7K710uERR8nz23hDz84n+pIm8rp73br+OxNTfz69qQCFjI/VsRa+cFlM7jo9CotN2xApzubd3/hSR57SRSLEsSj/Vz70UVcel4Zcb8XrAhdznS++ss+fv7n9bhS28Dv5/xDNvDb696MLakC+Az4M/n2bzv57m+34ltR9W9Ru50vv9vkC+9dSFQ8NpbJjvQhvO2zd/N8kwja6PxsDcI9LN/hyHyWHy5YxFGuaDwK8A9cxhPYr4KACW1WnM8ku/hjV4+qDq3BloGZtjGUgNLu5wkBRQIwJZ1T0krjcZ/3XPAWPvrh97JoYSNlAXNc7NDZ0csll1zFE088ozJI9JOGjpGrFO6FPjTiLcXj4fLtb1zFRz7yQc3D8X0lQNTd28Pq517mR//+36xY+Rw5Jwp2FMOWEJx+g2LkeUd+M5eKEjhs8SzFFVIBAPWhXBzX5cD5c5g9awam7HIL2ER5DXa+m9q2jPDZlLphsKMflC9XHp2Rrh8OsYIQhAKphbPHuIpO1qcc8Tmy4EXo6upj/bqN5DxHA+6AgyCpmes2ttHVGYiQjfHVpiBAKKBH3YGsuM2CpXM4+pQjmDFTUlxMNm3cyiMPrmLb+nZMp5DNPZTPOrrd+rBOYnjMXjiDt114OhXVZbzy/BZuv/k+8mntvBHX1sj3LLiyTMkKJ1pqsuTwRk4+7Siqa+vIZ13WPruFxx5aRUdz51h4UaPqcuMCCGr0ayU9JSKDq3KHD1k6l9OWH8UFF5zFokXzsCMW//aDX3HtdT+BaAxvpNE5qtbuhZPUbsLhykvexTe+dpUS+2lp6+avt9/HnXes4InV6+hNpQaVxgRODH7HXQGCzEtlPsT0BKXCC+ks/zp7Fm9JRLH2SknhYAILSiy/YFl8fscOHvRczcAPwpwCEN59aAv/9Y1zKfE6FLZpz9Vzyb82cfujKbX4SnbhtEQzN31uDucfU6oWP0nva8kt4IxPrWRds1R/tJhZ1c3Pv7SQMw8OyHqGQ5o6fvGAwxf+Yx3JrKmUEk+a+SJ/veEUEnFhwbvKE3HTXS6f+9FaGZQaIJgDXPGWDF//yCJiEZ1N0OEt4gNfvo8HXpa/yz8GOgG+R62b57OVVfxjVQ3lnq4OoRfpCQrbqEzTwo7Sp9uO86X+AX7Z3YGrgtjKyY6RsTBShR3syCBBjfiCN1J5zTQDvqG2gmOOWMQFbz+b0089jvq6Ktra+nnPB6/micdfxFReH71SDd55bPuVCR0oag614OvXfYLPXHox2XyepuYO/vSnu7jr3odZ9dwG5YkVYFMg5Sp4MzwOMgHhH7mhbeVZemAdNdW6/6iHqJoZOkRYkLgvDNLdrWXatzkMgKm7DbW58PNCCbVdDaqrhhRgXDCHD1dEnEpz3B57g4S7NNdHvCFajlqHisUmfRmfNevayWUD7tgY++IUAwjaC6A7qIcdiXDYcQdx7CmHUVFbTi6dYd3zW1hx7+N0tw9oqVg1iIs71P7fd4nGbY459TBOOftYtajff8djPLPiRRWrGs29JZVGYvMqU9bOceDBDZx05gnMbKzHyFts39jJ/XevpGlLuwTFR3XP0bzRuAHCruhadnyepwbyjIZaTj/jWC758Hu5+65H+ca3fgzR0ikWYpAcZI/LL3kHl1/yQW7+/a3cevsKNmzYTjovHJEYKjY1Cr+aZ/p4CiAEAjtSXCad5fr66byjooyIus9EH0GNdt8macDPnQzfam2nQ2Z0xSbXz7P8Ps48YBu//d5bqTQ7wbPodmfx6Z92cvN9HXieo7wblfEmbrhsJhcur8Xw88rr1e4s4vyrn2bVBgffilAVaeVfPlrNR8+djU1O1Xroc2r5l98088M/tZIlgunlOGfxNm751jFELAFhHknq+cEfk1z3K5FsFU+MT9zs5gvvivKlC+cSsSTrIUqzs5C3f/pvrN4u1RrlPQS4S5VKj5M9j2/OnsMJwnewZTc/xtlqT+b3pHZFYDTfpS0W5bLuXv7a26cZ3Koip6Q7Bh4EkcIb0yHgUYBCjrJEjIMOauSD7zuP4044mss/8w2efGotpvJSTZ1DWcN0+Pq1H+ecM07lf26+jf+77QGam7vJOIGcuEIzejnde4eEf13KYh5LF88ipjCCFr4ayiTYe09/w91ZtExcj43bemhpVznKRZlgSgEEnbMuDGGorinlTacdzdIjF2DELLLJHI+teJqnVr5Muj+n9oIyAeqQQnEvL64YSdKqrivjnR8+l+kzp9HVMsCff3cHbZs7wJJytns+RMFLgLBQSGxxmdketbPLOfWsYzlwwTxi0RK62vp5dMVqXn5mPdm0sMeHQ/Q9P2OkMyYaIBTapMIpvoXnZqiqTlBeVs22Hc0qZWYiyGTFve3urjI5cF4DTj7Flq2tYJWrXHRJpRPincTvR3MMAoSoXtCkH1Znc1xh2nxm7lwqBgsdjf+7DbVH6z36vsX6qMXVrU3cpYitWqWv0EVMP8vM6Ev88dsncOSBUQVbM34Nv1phcfUNz5B2YwpXR8w+Lj3T5bpPLCFhZdXY6KeRb/xmgB/dso48MWySHFS+kf/3kYM46tAZZH2be59I8p2bN9GcKpcYC3G7g29/YjaXnVWihXQMkx0DDXzqB2u4fZUeEbK419vb+K+vHMLZRyQwTeFFJLj/5Wre/9WH6clV6rCf8IJ8nxLX5/NlJVxWW0u142EIP2GiAYJidOsU1qwPL0QtPrmjiWdFPVBNFAFASEl5aCmcNZqeMXSO2pmq/3kq8OC7DqaTYc78mfT35ejtzwxzU4/t3nvrbNlEySy3ZMkcOtrb6GhLq2JbqnCm4mTsrSfvel9NfhZfa2Wlxdw5NZQmomqsapMGnqTJas7r9Dm6iJRBzoHtrX1saxoYl7jflAEI0kkkHOlHXObMqedNpx7OgoMbleuruamT1Y++yPOr15FPS7azjmsKWWg0C/iIfUHJ2frk/BxHnbCIsy44XeX9P/3ISzxw1yNk+nNEbEkH2/MxIrPfdKmsjbHshIM5/OhDKStL0NeV5vnH1vDMk2vp7UkrFbtiMi4KLZp4gDD8XbUnp8D+1QZ/NSN7z9aZrDNkYIg7W5MMFUN7DAuQxKi9uAsJKyDX+UQ8eFNPkm80NnJ8eblSTVSxzmHlasfzdtod7qsiRP+TdfhO0w62KmW3XXu1T8xt5tKzfP7p44dSGffIGjFaBqZz6Q1buPuJFnxTIvoOS6qb+I/PzeNNS4QtbitFxMe21fOp76xizVYBHxZRv59pdgcz6xJkMdnSmifpV+MbAj58lh+c4aZrjmF+eYtaDPNmKbc87HPNjetpS1Wof5OUyA+fEuVbly+mNtavJv4dA7Vc/m8v8NcnZVESnoImKUqmwvKcw9fnzuFIATKa/jqm7zNaO8vsIBuNHjvCv/f3cmN3N50FLQTJdHF9zAGpoT2+vqxzA4YvajquPtWOAM7ptgWZYMPibEXvLIt7Tw3SJFRTkjCprSllek0JMdtWAlRT0X7FvefkXqVJvsIXk09s0t2forkjSU9vBtfVMurFHlMGICgHV8TgoEMbOfXM46ipL1VDcP1L23jwnsdobeqDrKo9txNbvdgXl+tk52+V+7ztXctZcsQicv15fv+r29m2sRVTJpDRy2y9qhlybwdH8RIOO3IBp551PGXC0sl4rH1xGyvue4r25u5x7Tj2LkAYj2X30bXCrhf3k6dDR2OaryUlTELmpZL8XkjxMlXthU9kslwzt5EGW1JBZQESItAELAbKJW6yPRHnss1buN/xyEl64K6HD9G8y8zKDdz4mQW8+fhKrQBhVPHwhhlc/PUHaeqS+GOMhNfJWw/dyn9+/S2UGzklB9tjzOTmB12u/P5KPEu8BKJJn1G/Qwxf1UfW8eCZZW38+zXHcM4yyeJI4Ro2rfnZXPjVh1j5UhzPjCvS3uK6Lv703TOZN62ZCFlFcPvFnT5f/OUmenPVOrYsO1QMKvMZvjltGh+qqCXu5QOyZ0BSm+CuIjnxScvigXyOzzVtYbMtyvuaFyD7VyPtYmX0ZDqm/jHB7Zys2420gZqAnlt885UglngitcR3PGpRUWYSTxiKGC1pmBMxtIpv4P55peuaZLMuvX0ZUmlPpd1qme3xbWimAECQicQhXp7gkGWLOfWMY7BLbbKpFGue28CjD62muzWpctcjps7jHX8UX2N/1/CYt6iBd154JonyCBtf3Mb/3XI/mQHRppedpA4bFHPo+Ufn7cYSJnMW1XLSqcfSOGcGhmey8ZUWHnnwWbZt2Y7vDEl6jGXwhgBhly+jQk6FCaaIwjwmuAlPvOxaUVu5yGFeOsPFts1HZ89mphlFOqMuehT8KqaDKIRqMGDb3JrP8IXt22mLShVGATZDdRf0rUWcKINJircd0ctPvnoCVbGs0jhIejO47ve93PinV8jmRcghT6XVxD9dVMbH376UEjOHYyTo8Rr4/cMG//3nF3lpWz+ZXE5r8avS0R7lMZ8j5sHl757PW44ppcToVu/en6vi+ps38v1bO3HMatW2yngb1168kH88T2SSB5SX76WWaXzy+tU8vl7c12JAWQk8VbTpXNPg23PnsCgnOx0BCK9OMy3OhAWSsM7tl/amTZNHnRzfbGnlYSVbMBQWk3Fn9YlIkoC8iWpDcS2fzKte7Y+azKfvOkaH/T3QXJEUSENpYei+PiHgex++4mQ/WnuhtSaEKhpGJFC/CMi/40gh3qcAQQtWuNQ1JDhu+TEcdPA8EmVRurv7eeLh51j991dUSEEX0pO9SNEBhaFvJq4YccYaPvFSU6kxnrR8GclkkjtvXcFzT2/AkDq/apc1Maltiutg5WiYU8WJpx3NkkMWYPkW7c1pHl2xipee20g+LQkpkoo2+ncMAcIIQ3Ecnkqxpxdx8cstLVOmmM2WkndtyKR5n+lzUcNsFiXiRD0BkSIuVByAlJYL7XGzafOFlnZuz6ZwbCX5NGKIQQaBPKrS3Mo177D49AePImrlcf0KnuucyeXff5Kn1mQVgdDy8xw8fQs//fyhHL2oVF0nxYuSZiXrm8t5cE0vW7a1kexPqlcsKytl6QHVnHpICY21aWz6sP0sWTfBvasNPvm9NbSnpuGKHoif510nulx/6SHMLRcQYdLv1fCVn77Cz+7sI2tICCKoTYHHgrzHV+um8+7SKHEV+BY+wFhg8GtNtwVVTxHe90gbNitzOW5oa+N+zyWnPICBUJlMnhkwU8O1DyaqHZO9JITPCy0wZAHxEhZKecsQ00fApSpyg1u4yz4FCIIWp8+q4dx3nsKseXU4Rp6Orh7u+OtKNj2/HSMfUXFf07fxrIIm4Ti7hhJQM3FMj5nzKnjn+86idno1Wzc3cetv7qSnLYupWNoTAxDURkVc3kKHFBZvrc3ys47msGWHEo2Y5JMGK+5azeonXiKbyYyJkxAChHH2hV0u12levhK/olSkiAMErgadQbmT4/RkistnzOSEyjLinihs6nJBxRxp0+JvUnNhRwtbVIqSLlW928PIK139+ZFX+Nm1yzjxkDqVKpimltufreLi6+4n65Yrz5VttvORkzP84DPHkbBSQXxSOBSW0jEwPZu8SkM0sGwBOcmgZLXWLBAYvbm3msu+9xz3PhvBNxKK2FZrtfK7ry3jlEN1OmSOEv78pMtHvv40ab8u0MTV4Mr2PT7gG1w7Zw7zvKzKvlBofwIBgtjK9aP02S739qf4l5Z2no9GcNWsGaQ+C7ARKZKkr0OHCsDIlcWDu2K+d3jNyBbQntbJror4+vkaSttDJYUIWb4QHn0dAASZDKtqyzjl9GUsPnwBdsKgry/Dww8+z0tPrSUtqneK5qQL7UyMB0HLoUrVvmOWL+b0M49VXIO/P7SKh+9+Gj+vFf4nEiCI+qAABNHMrqiNc+zyQ1l29KHE41FSvTlWP/IKT6x4gWxatO5Hl1opdgkBwgQP8sD7IF4BkV0WwqJUdCzkbMuimXAcDk6mOCdRwjk19SxJxChRKoZB2MoUAl+BZjiyN0hXiDRoicX4Tlcn/9XbTVJq2quUXY9yz+HgeCnVkTgv5vLsyKWVGJcaC4aoC/RywdE9fPdThzGjQld67GQBX/3ZtHGwSgAAIABJREFUVn59+yaVmSAMmNrIVj5/YS0feut8auKiPp/F8iXfXQMALTVbqC8vfxMgIK5Km7b+ODf8cQc33tZJypEiUFFiVidXv2sG13xgDgkG1KT0cks1l1z/BE9uiKtqkUrGVxRefViYTfPtxnmcHYkSFYAgaW2jVbbdzadV3sSgsrZr+fT7Jmt9n9s6W/hTOsPGSIL8oOauDjuoIk0ZD5XaoAZOgWA4wf0nvN3oLSBp7NEI1aUxysqilJTEsO29qVU6+qbtb2cK3hYpG6km3DeQoqcvqfgISt5GNrvjINzsYw+CnnpLKiyWnrCQo487mLLKSpy0yZrV6/n7fU/S15PCkBx0Je86evf7bj+yMHmFHFMS4fwPnMGiJXPp7U5z6813sn1jm2J+q1jOBHkQ1A7HdZQrekZjHSeeeTiLlhyAZVm0NfewcsXTrH9+G7mkuKwDbDLKHhoChFEaqojTJDzqSQA9YSjafWFRl1vZnktVPschjsPp8RjnT6vmoJIKokrf3gmkiOXM3fRXkfY2TJ6Mxvnchg08KWEl4dYYpgpdvMOGS+bMo86M8YDjckPTNrbkZeurepMCEfWxJr754Ro+dO5CqeCAQwkvtM9VPIBV6zL4phAUHaqizVx4vM0/vn0RBx5Qp6p26uCGAG/RtZdaG5IeKMDAJO9YPLMuxw23rOOuFxz6nQp8P4Jlurz5sH5++aWTlCATfoSsW8q3ftfCD//YRsqRMtPyvsJrMKhxs1xRUcEnamuZNpEy1aJdYBhkjAgbvTR/6uzjoUyO5wyHLlv8jQHKU5oePobwe1JBYoqnpcNf48sU0VPCS8ZkAcUT8qmtLqGhroKKEhNJ3NlrNU7G1Lj99WTtEZONr4DjTNalozvD9qYeXBVzKM7DqcaJPe3Eoq6WcTb+ao6+6AapUspmxOHAQ2ZyxlvOoLa2Css32bahmfvuepLtm5uC6mt6zh0fUBASR475B81UZZ1FMvW51Ru4908PMzCQUalyWoVqYkIM6rOZPo0Lp3PmeSdR31gNrsmWDVu4787H2L6pR7l7RblPvZdCCaM7QoAwOjuN9SzZYSsSgumq0JbIL/uxgjSe3n3K4io9qSrrc1hygDeXJXhLQwMH2CWU2gaRoKCMqhk//BAulunRb8e5oT/FD9ub6RZ52yC8UJdzuLGulrNKS4k6Hk0lCb6f7OWm1g4lAqQV46RqXZ7Dajfyv9cvZ26NzAEuSWM6v7o3wpd//AxJWQzVYPGIuh3MiDRx+OLpHLKwmohETwJvRMDDVAt7cgDWrGvmibUune50HMvG8EXy2WROZRs3fvYozlkmvrA+oJxnNlfxvq+tZEtXBZ6kgChZZgE5Bmf4Lt86cC5Lcmk1lgNlh9F9imElHOSCwoiQf05bEZpcjzs6u7m9s4OnYlH6rbgu5COpcsKOVxEOE1P0FrIuVk5UJLUO/UQXIRrdC4VnDVrAgPr6UhY2TiMqBaRUyqza6k5yyuXr75soDpUe2cqr2NKdZNOmbvIiiFXksY8BwlCr856LZ7vMW1jP8ScfzvwFc4jGErRs6eaxFavZ+NJWcilJzVJ5MkW+rr4sWgZvOv0ojlm+DC/rcsetD/HS0xvw3IK+wugX6d01RNUpM3xKy2MsOWw+J52+jNKqOOlsjvUvbeLxB5+jbVuXsOKKKzAVhhjG1QdGfbGsK5aHL8pvEVsvQlreaPAWEc9jWj7DvGyWYxNVLC8vY2l5GdOjNmWehB+CcyUH3IW87bPGivHZjZtZaYAjYSXDIOLlOMOBGxYcyAE5XYo5a5qsSsS5qnkHz6RyqAhYQGWM0sJ7j+7n+589mcpEVkkbNyfncOWNW/nryhYFcgviFYpwK8n/UibazwVRE63+qe6nGOUSVynFN2XBLejluxhmL5e+rYx/vmgBNWY3jmnQmmzkkm88wgNr4uSNRNAiUUyEOXmXL9fX8e6yBGWqnHNBAHkUVleJIXrsiFdDKg0mJYTi5dmSSnN/MsOT/f28aEJ7LIo7rEBXsHtQojsqczPnKyl2RZ4Ij31vAVH7rI6xdG6NqowpUFN3RPk1vtjTePRkJsIwk1XlduT3HAqDFoCWjDjxHmxu6Wfbtp6iN9VTBiDIpk3GsrhGq+pKOXr5oRx57GFELINkr8PLT23g0RVPk+xPYRTIR0V8WUltbJhbzXs/eD6VtWVs39DMH2++i4HOAHwEuuBF3HrwEnFjyv6yUhVwOoolRy6gpNwi1Z/lsYefZfXfXyCXVK4THcooosBUYWdVdLGm8bzgG+ZaUWTUL6sq+EmoQQh9UR0SGH5ofqNP3POpc/PM8zzejMmJZRUsqK2h1ndFcUAN1IGIxa+zDv+8ZQvtiYRe18Qj52T5SmUtH5o2jQoni+n5qshQXyTGXxIxvrZ+PVtkPz/4aI/aSBP/+vFq3nH6LFUn3jGn8UJnI9f88AUeebYLT4iBSkpX0jJEFVGX+N05/FGYqCUlUH6mdxxW3sWM9nHOcXGu/8elzKvsJuKL7HIJN/6xi3/+dQeOUR6oQWprlDp53h+N8aVZs5mbFxkmXa9+tF4/USiUNmRiFh2Oy9buXh5P9vGwk2cdJs2mRVoghxCyRvK25U1MUUnMaY6F8jeGifX7fsSKJ8uGxQdNp7pUSo7rKrcFgKp2vRKie40CWrt/CU36Gee+cd/baBQtUD16lxfV3TsInQVro6w/4kVLZSyeW9tKNi3KqmMHylMGIAiRQjkHZZeFiV0CR51yOMccv4iKinLIWzz79FpW3vc4vV2iQljQ8R6FVYefEoMTTz2CU846FtdxWXnfKh648zFsI6Zcx8UYcfjtJVTgWQZ1s6o446xjmLdkjprIBnpTPHzP46x+cj1GVsje2lGtF58xvkNwehhiKM5uY72qELUWsOCbLn4kqNkwKHq4Cxs+iMXXpNPU5XMsdB3enCjniPp6ppdVsN1wuH7Hdh7yPHLBgLZ8l8Mcj5vmzOMQdOVDrWUp7kKT9kQJ380M8IuWFvoH4wIWlp/ipLmb+cmXjmZug0SoInhWGRv7FvG936zhbys30ZeKq1CemowVB2HXDjckDKVqFYj6oZWnoTTNu89s4LPvX6rSK3FzivS0cq3Jpd96inXdswZDI6qYkWdydCbJtxYcxPHYJJysepTg4AIkUU9XKe9CrhTY4OLgkTEN+k2TTt+iqa+PVb09PJhOscnJ05MooScqXo2gaqviegTvUOAUyPtlfcyMqdJPlWqgklYeXjVprF8+PH+iLCBk2GlVUZYsqMPWdchU/RrpNzE7wtIliznooIOw7JGURPfUioI3b/ye3z09aXc/Lw7YjP1pqhrnLofnebS0tPDUqtWkBvRGVwEEFWqLsL4lSdPWrt2M/dduw9QBCIMYaCidMRdxWbR0BqecdjQzZ9fjuRbb17ey8v5VbNvcgica66MkLhZSDauml3HBhWcy+4CZtG9v57b/vZ8dm9uxhUU+zkNNfqbPwkPnc8wph9I4vxbf8di0vpVHHniSHZvaRcdGl4Aaj0x0CBDG+aXGd7kU/tFAAUxxlcrmXMQGBlPsZQYsiPf4RL081XmXKiRN0KLLMNls+qQta1A1Lubn+XgkzpcbGqh3nVf16hw2j8WjfLutmXsHpMSzZCrITtqj3GjlyrdafOmjhxEnqRZf1yih363llSaT57c4tCfzOKJlvgfCkmW4xEyD2kqTI+f5HDDdIW4mMfyc8hSkmcPV//YsNz84QBapj104PCocjy9VVfHJyirKPEdTElSqqBbsFqTginARIijq0+p5bMyl6MikaHUd1uQzvOAadDjQZ5r0RiJKr8QTEKXmxcKCP5RaajiGGlNG3sNwzDHXVxhfTwiv3pMFCsuZAIQZwj2YW61FkVR6qvzu8dazz+bjH7tYZXWNi0I6Yemze3qrV/9cFunhx0jUwIItdoUxuzt3pPN2t27knTwP3L+CH/3oJ0qpUltWbwaauh3Wr2sryrZTCiDsanZXKtKZBnWN5Rx36uEsXLqQkmic7rY0j69YxYvPbiCTzO4RImjyhpgrz8FHLeTcd5xOtCTG6kdWc9/fHiOfRNchH+eRKE2w9JiFHHvioZRNS+A7GV54Yh2PP/wS7W29SrVOSUWr8tFFug2GtTH0IIzzgxV9uR7SirVfKFgY87W4kpbfVIu37GB1vUY91LWgieyXBYxKDFY8VnoYT/Oz3FBew7srKon5I1SOdH26ojZ/sW2+vG0TbXmt9ClxXPE+zE1s5HuXz+C8kxcEUsYOpicxeqnZKBOGgJFR7LCCFEh5FZuM0l2QNA5pdZZybrljgC//YgNd+SolVS5HgAGoz+b5+rRaPlRZpXgOOqvBV8zqLhO25Ty2p3O09vXRkkqywYeXYwbthknW8MiZQkKMqnCIqr4YeAG0KqP2BKiMb8/Dz+fAEV0DU6UxSiaG4lEoXYrwmCoWGJrlXBpnVnBAY2WgTisEdV2X4crLLuPcc84ctkVUvWoYmA36mR4xu3k1GWtSiePVM6vu9Tt7zkZalEdrM7UzH8Yn1x7+UYyt0T7gtc57jY3lxo1buPLKawJFRfHN6Xdu6fVY+4pwkgp2HX1DpjRAkDK20iVkkrUrDM44+3gOP2opsdI46f48j923imef2khaeAmvsTOSbiNoNRJxePMFJ3D0ScvIphzu+N09vPTcZq20MGY/v69KH0tIwjSilFTHOHb5wRz9pkNVTfjMQJpnHnueRx54mtyAKDIWanZPBDTQHzgECKPv6Hv7TAkj+VLDQdaoqIlh2UpDQdzrEnba2dNdWOz0V5S+e7yT5Yez53GYacr+/1XNNTxLERR3xGP81Mnyk6076Au857JAx/wBFlRt5rpLl3HakRWUC6FSAQhxywtIGa2gU6FugQiUFeol2HSky/jLY0m+8ONH6M0vwFUet50nxbjjsTyT5/2NM9VusDOdorunl66BATZns2yMxmiPROizxfMhoEBXX9yZQyhqjTo2XYgiCGfCEC0D10NhJ8dQZE+p7qZCCOExZS0wHCDMmVXJ/NkVg3O1iPpI3//0FZfzlrPOwBIELQRV+c+HbDav+kHEimDbhiL7ipqnlgUKyn0YkMtmcYQMHDWIS9GyYRydwjzpOC75nE5BjkRt7KCA15iXdd9A6C3ZvIORd9UaoFMMx3ynor6ZrCPCy43HY9iDm1q9ydi0aQtXXPFFXahOOFOvf4Agr1hAjR5llREWHTqXY047gpq6afhpk7XPb1fEv7YdrbsluIjDVkxYP6uUd110LtMbatm2ronbfncfne29avE2A9b2aL+auqMABNumYX4dx520jAMXz8SORWje0cnTjzzDS6s3kBMJ5UArWxGmlBjOxBwhQJgYO07kXVTcWwEDKfpk4EW0jsJg+qraCQ/H8h5Rx+EqM8Zn5jQqzoJSUxzeSRR1QGL2qKyGdYkY13W2cXt3H5lgly6nm36SuZVtnHlMOWcuK+OAmTHiCQlFyEZCVtQ9KQfKmUJUDDjlvs9AyuTlHT5/e7yPe1al6EhWB1kOhXsG1gvmx4hrUO3mpJQUSdPAkcXetHBMM0jT1EJKgwh3V+MrGpKup6HqoAggcEXPoPAK9lDK8x7fZyK/bHivYiywZ4AAn77isiGAIGEsx2XNhlbWbm0j7zhUVSZYtmAGjbVSQnwoYTaZdli9dgfbmjuU92B6TTnLFjZSU1kWeNG0/66r3+XZlzbT0tmLZZrMm17F4Utmk4jFdPhrDLt/x4dXtnXx4romkgPJQZOM5R7F2FENYUX4Bdu2mFFTwTGLZ1FdVToITd54AGFQAWrIxSR5S42Lp3Pm+acwvaEeKVvVsqWXu299hB07WkZ03ctHNSIGJ599FMcvPwLbh7/f/ywr712N4+QCcDBGp5MCux7zFs/g9AtOpG76NCV7u2lzG/ff8XdaNnfg5WS2cwYVe0OAUOzQ2D+uU5OEuMYDcpzOzTfxTUfv4iNS61jCEgWpX1mIHerzeW6aNpMzykuIKZnjERZyxfSTXyYZE+6P21yzdTuvCKBQOyp9T8PIYVspqo0d1ETy+J72cg2lk722LXUpdb2Ty4nWkGvT4TYw4JTjGpIGKQCnUNp4d4BDJfmqdqkdfhAb1oE12fVLdkbhPju3xxQNkryBkcvjS2lmV87TKqpKxGxoStZ1HcJjSltgNADhymEAQYiLa7b0cPujLzPgygbRxjYyzCm1uOD0ZUyrKFXv63oeD63axMNrWpS3QaQ7ZXgd3ljBmccuJh7VqqASgL7rkbWs2dxOOqhZUOqnOGbxNE459nDsgCQ8ugXeoCOV5xd/eYL+vI0pxQMDF8VkeRAKyNr0cxx9QDlnHHso0agOH77hAMLOH20ohmRYPtMaqzjh1MNYuOQA2rZ2cvcfHqGttVOlQO7qxBc3VkV9jPde/HaqZ1TQtr2LW//nXnpaelTMSmvwj21fr0VoXJYcNYfT33Yi0UiMF596iZUPP0tfaxJbto1qszj+zIjdzQChB2FKz407NU6FGAQwRKUYlN6lyxHzHE50fW6cO5cDgxoII/XEgNcVcBc82uNRbvYdvrllC11SX0FpHgw71BZ8bH26cHUhe3DI9T/EASh4IcYEpwvt0G6BgEugp1Q1VgtOFflx2sDIiJ6CBinhsX9b4LUBgg6vXSkhhrNPU38Wr+zdT6znsbUdumZG0EvKyfHuNx/KnIYqBTJTGY//e/hl1u3o0d3ElFCVz+wKeM9py6guL1P3kpTY//zTY3Sn3cBxp6tFzq1w+Ye3nkhCci8VhWBPIQKtJPLspm7+suI5fBERG+YN3vP1E/8d506L8vZTllBZFlfj6A0HEHZvUnHheiRqLQ4+fDEtm1vZsb5TxYPMkQCCCYecsIiz3naSIoU99ciLPPDXx3VaeGHyGuNkqoiPvkukBJYeu4jSWCkvPPES/d0ZpRyndnVjUEUspvuEAKEYq+2bawaz8krAKxkKM1Tms1yaKOWqGbOYpnQDhsXehzdV8hQHDwNHSH/xOD/KpvllczM9uwKEYl9TxyN2phfIo9WOX342JHq0024+uGyn8ElwgozJmOtSIYJSlkl5JEbeslibSzOgAMPQMmKmhakoXoYJrOlUrC3C68ZtgdEABOEgnC0AQUi9nsfjr7Ry71MbVGGxQqyt2s7xnrOW0VBdroi+2bzJXU9u5pn1TTqdT7hgwILpcc47+WAq4qJs5kr1EX5/7xo2tvYo8p5OLnc4bE455550GDGVVrlngKCegcGGzhy33L2KnIS9hhEGJx8geCyZXc5bT1hMaUxATggQ9Icc7LIyg+i8aOXBDBRthu85dP61STRhcN6Fp7D48APo68hy2+/uZ/PaHepO2nlQ/E5FkShNwZamygMvtK/4O45+TIYAYfS22tdnFrqoVylBxCHW8+xMhu831HNeSRVxL61lvkdKqAm8+UMee5+cZbEuXs61nc3c1t2tFBkDd9gIrzsU+JfxstPmfCd3wHDFGSGGBbqRphAWtfiKGjeqkrL2Ugi9IeKIYkOeUg/KHYca06AiVkJJWQnTKypZVJpgvmHS6OSY5kFb3OKnXZ38vq2LvOJHqJGIlbOhz8MQhaght8m+/nzh88dpAdl/70pSVB4kyWK4XADCqUFdEI/urMc9j6/h5c2dSndDCqueedQ8Dl44m0gQppIMmpYBj78+8DTtfXnlASiNupx78qEsmFGl8Kx4oYSgvr4rye0rXqBD+GCOw5xpcd5+2jJqSqODomN7WuALrKEMJo88u43HX9xBLh/M9ntyPozTdsMvlzRkw3Spsh3OP30Zc+qrdVQTnw2btnLlFZ/TGH0YSbG1F155pTVQrhzbyjSlsxjGa1cBCBKfmndgPW97/2mU15Sx4bnt/O0PD9IrO33JFBsHOBhv+8Z7fQgQxmvBybtelVmOSHhBSHuykPuYnsuxvs+PZjVyhGljehlFwhr1EPYhadk8EI1wXdNWns2K6NCIAYqgyqKjFvyIPEPLdwYuf8kcCECLYWCJUJJAXtMgikHUNInhEfc9Yr5BlWFQFo2o3V40FqEkElH6DtNjNrMwOcCFetskGgCdiG8QzTvEpbQ0DqbUjbCj/DUR55oXX6FZimIVVA/zNgx4WJKyEQKEyeuge/lJIwEEjTR9rvzU5Zx9lgYIksLqSgghb9LU0UcylaWhpoK66pIhrm/QL4S/msrB9pZesrkcM6dXUF0WxQ529jrDxUBoLO2pPFtaO4lHbObUVVIRC/gDiji+Z6JiAQNIPZSsC81dA7R362rDk3mIjRJRkwPqaimJC7m+oFJqsGHTNq684qpXAYS2Xnj55ZbXLiW/m5d43QMEwZDLz1jGcacfqQq2PPK3x1WIIZs3EO/SqCfjyewFo3xWCBBGaaipcJqwr2MOXrnwBVReFHE3z4VWhH+aNYdGUUD20yrtb7SKHJoKaKhiT3fY8LX1m9giMgGvqqmse3nMS7O8pJxltdOJWUOxVxXCVS59ycAwlFBSLMjsSWBS4huU+nkqcCl3XKo8g5Jg96e9b55WWghywxOOLpheqFkxCEZETEZNxhau6bO6tIKr1m/kUXKDsWbDsTGSHoaIH03izmwqdJHXcxteCyBc8anLOOes0/QHV4JDKqY1JLAVGEZ5aRWW1A7/Qv0DTdIdXsI7IOYG+hm6xJn2JmjIIFe42o02yg3ikGdY65zoiF8h4XLyvlyBDKn0HlT69FChq40CEK68Gi+QLhWgJW3s6Dd48cXmokLer2uAoDqNmWf+ghksOfwAqquq+dtf/k57s1SjEzL5/j0DhQBh8gbmeJ8koTA3kYdSyXnUk1O56/GZaJwrZ86kSkR/xggQCm2SaaAjWsKvbZPrN6ynQy3PhYlD93HL8znQSfGL+Qey1Lex/YDW+KoJUmuwaegsfoTgcDX3QDwQClCo67SgU2GiLnjjdg2RjDTKJCjXEovzufY2/jeVHIx5SBaDMSBVGMdr8fD6qWQBAQizppeyYO60IAVxqPdedNFFvP+9F6h/UKTuIANmuHdX+5h2LvOpajcUiK5BcHfQFxVwaQp/Hx76LSyymhSpe7geBqPZLgZhtVGdO3lfQGyxZs1arrnmywqAS9zBVdonBu39Ji+vaVIkzrEer2OAIB9bdklaJMayfErLYvT15XBd7VYS98z+fIQAYf/5ehJW8Epd/CBTUAL3dTmXf0lUcmFdPeJlLxYgiBWkcsOWRIwbUil+1dKqBJcLtT7U1Of7LM1m+EXDbA6Px5Srf+QiRsMnyWETyvBwq9rcFeITe/4Ger+38yHLQJ8V4Xo3y/dbJFUtUKCUMIQwF7PiZRn7hLbn1oRn7BsLuNRVRVi6sAFz2MZMiN71dXV88APvZUZD3U58sJGX6931u/HN5ePhoe0bew49VbIp+np7+ctf/saqVc9j2aLvIKuepIkabG7OsGVrT1EuueIAQhCzqZ5ew7XXXkV321buvetOFfuZWscQMUucTENBV83KmmqtHavtQoAwVovtu/MF1PtlPp4ti6vEDh0WZXL8aMZslsdLVIliydoeS4hh+NvITihrGayJJ/hORyu39nThWBGkHKSWfXYpc3w+5Lp8euYs5tmWVhVQanZ7Hg3DeYzaMzu+0SP+iKxh8vNohC9u2kxqUKsBrLSFL6mOO2Vu7LtvFz55IizgkYj5HLG0kVhUOpyej9W87PvEojalpYlXzcmv7mW7AwgjwdDRt3ukYIFSJNwfDsNUapLJVEZrhigxKeFeuDguPPdKJ/39krI39pcpCiCIXKW4NKrra/inaz9LT9t27r3rDhWDDI/Js0AIECbP1uN9kmf7iqCoRZI0QDi5P8v3Fs7nMMNUIQDRD5aFc7QchJHalLUsnikp5Zq2Jh7r7cXTlaSCYlI+9aksHzMsrj5wPpWubCocBU5EFrqoGaRowxjkDYtbS0u5eu06moK4sqrmmrYgC2aBJV70M8ILp5IFxGM7q6GC+bPLdwkz7L6V+zIKXEidnEo23F1blK8t8LgJgNfwy6CtO8MrG3q0mFQRHrkQIOwPX383bQwBwv7z8VyhHlSALyjak9oJOd6V9PjG0sU05jOqGOREAAQJKyQti/vjMb7TvI0nBlK4IuoS6CtYrsecZIqPxeNc1DCbBkv4CE6grTy59nQMk4dKS/n8uo0853s6RhoChMn9CJP2NGGE+9iWy4GNVdTWlGKakhobHnvDAuJRTCZ91m3toG9ghOJvo3xoCBBGaaipeFoIEKbiVxm5TW7cxy/TNT8k7prwXT7lmFy9YB61OQEIon8wfg+CEiD0PbqjNndGYly/bQcv57OqDoJif/sGER9mZrL8ox3h4tkzqfMEIEjqo7R99NyCcVnfM1XhnWcTZXx+81ZWuCmV2aAyKXIRSPmiqh4erxsLDIV7oxGP2bOqmFFfhi3qouIWVyqbU4tzYkpNEGnf8EqQioEbBNykQMgUOAIasvYZKOKmRXdfno1b20llnEHtkmKaGgKEYqw2Ra4JAcIU+RCjaMauAKE0n+Mrls1l8+YifxaAMCEeBF8SumShNWhLJLjdMPnOlk1sVBWYLKVdIP1GshEWJNNcWlLCh2fOoFQVaHKVJ0PSgff6oar2mbycKOWLzU3cme5TAEEO24nhpySTYWotGHvdJm+UB0iIzcxRXmoxe2YV5YmEirxNRrcbi4kFClgqbu4rLQU5lHCYb0ghUcwpUizMFbK9b6oM0YFsno7OFO0dSTxfSqYNqbaO5d0L504YQLgn4CBMwtRSzHu+Lq8JAcL+81ndhAdlhaJKHhW5DN8rL+P9ddOJO3lUkSJTqs+Nj4MgcUYhfsmc4Zg2HYkEt3guNzQ3s93RinN62TWIeD6LBlJ8vLSM99RPp8b2VUld0ULY64fszjDZlIjwxbZO/m+gFzfwN9teDD/pqpoM4fH6s4AUYNKVDaQaLiRsiEV3qSUy2a+9U1fTf6kst2mcWatVxgPJwDeHAAAOx0lEQVTvhsT1u/uySsRJiyHocye3WNOuxrGkZiF5xyed9XSWnqo2LB4QC0MVNStuLE0QQNjG3XfdqepUC8IKj8mxQAgQJsfOxT9Flw1TS3apj18qf1ZKRlTnsvy4qpwLqqYR9UThUAMEmXOscWYIDG+vTA2tsQS/cF2+07yZpGcrArkqby7FoTyPxqzLp2JxPjCjjhopNikeiAJpsBjq82gMJq5a32dbSZT/19nDb3u7cUV7XzI8RE8p6YcAYTR23C/PGZ4To5dXfQhI2NcLiE6Bl+yemkqDxYsaVJVI0frQmTsWTW1Z1m9u08S/YHxLvZFdjxHlm7VG2k6HCuqNA5MrEDB4A30j9WzhFhXCIUX2kxAgFGm4qXBZCBCmwlfYfRs0PNCpXK8GCBluqq7m/IpKTH8IIMikM3EAwcdzfVzbYmNJOT9O9fKz7U1kTcm1LOwsPKVOd0Aqx8cFJMycQa1tEnGFl7AXMxsCgNAci/KV7h5+3TcMIAiqEQ5C6EGY2h18ols3jkVyIpuiuLIm1FSYHLRw+qsBQmuOdVvaBpMCZJRI6efRHHuq+TCae4zunBGQyOgu3Bm82NNOHDNke3WaY+hBKML2474kBAjjNuFevcGIACEgOVXnc/xHZQVvr6zE9lwM39IkxYkECBJOkOwIyyBtx7k/YfPRtWvpVLsdmdAkdqkVEm3PZ2YmwwejMT40vYED7QiGIiQYKrtgdNPfGMypAIJBa9TiKz09/KqvZ8iDEAKEMRgyPHXiLSAiej41lbsABHmQYdO0C0B4refvCgjGqx8y8e/62ncMPQiTbfEJfF4IECbQmHvhVjsDBA8SkkmgeQhS5vn7JTEurK0jKoWbFOVpogGCIZ5SfMtke9zmpy1N/DCZIRXR5WHVFkgnUAf69D61OY9/cFyunNvIbFu8DEEVx4nmJUjWhmHRErP4cncnv+ntDQHCXuiD4S3HbgEdYvCprdoZIMhYMcyxAYSxP31qXREChKn1PcbUmhAgjMlc++DkIQ6CK3WQEwWVM5PyfJYvkefS+Qspc3KqfuJEAwSlrmiavOBk+XlHN7cmB+hIxIUCoamQBeKVMLODlC3Tt6jPZjknk+eTM2dySGkZJb6rQMZEH1I6emsiwRdbWvhjqj8ECBNt4PB+RVmgABBqqkwWDwsxhABhlOYshBiq6kVqWZQUt3HPXXfqam5TgGYyytfY708LAcL+8wnduAulUkRFq5CWeA4fTib5f0sOZrqbw/AMRVKUTf24SpArqQOV6Ei3bfLoQJqbOjv4uwe9tqUK2A0OUkEKwmMSZrE8W3HHdKGnCtfhZNFKmFbDadXTiBekyQvMLDH9eL0KnsnziThfaNrOPVmRmdYkNVNY2EkwcmOOfu4/HeIN3FIpaT6VjwIVoqYSliyYjm0Oy1EwbJrbHNZtbpvSK512DArbV8KExWeIjMuDMBwgSC0GAQi78lOnckfY39sWAoSp/wUL48GNOvhldiC17BPxHZb3DvD9RQexxPKxAoCgdinjoDT7no9jWmy3DP7Q0sJ/J3tZa8XxbJFyHKaDJOI0GQM/44HtQ4kkohcWZP171HVZ1pvksooy3jq7kUrRSXCFIBBM8OPRVleyrxYPlcT43MbNrFa5HhqcWI6B0S/VZvYTLfyp3w2nVgv3k0WirtJQxaUsY0gHwTeitLRn2bC5VRU5n6qHL14/RUASjlEIEKbqd9qr7QoBwl4174Te3LU9/HITIpr4Z/o+8zMZrq+q5rxqSXX08RQpcIwAQSUaSKaETqfsNUwez2f4fVcn9yTTtEQj+FZUcw3U1sjXXoMcmFkDFVkwfbyoh1Fi6UwzdSetcBdzYcFAmrfHI7yzoY6lkTjRgkCMeBAKk/1YGei+j4PFb22LL27ZTKt4N1R5aR8j7WGkDLX5CY/XjwVEX6OsrITa6jiJeHR8nrJJMEvCdCkrNRUPp6DRIWwhJ2+SzjrkxutB28vvkM7m6e3J0NOVwh2m2TCWx4YehLFYa4qdGwKEKfZBXqM5nizCpQZIqCE4yl2PT2NwxcxZ1KoSiTrEMBahIl1/xSJrW2z38tza1sHvUgO8bAn/QBZd4RoU8st9BQiMNBiySxcPZMBT9OTZUmWvxMKPSM63g+9pr4MUkqrL5TjZ8bioYhon11ZQLsRKVTUuUG4c7WQZLPrCP+iMWXyzq5sbB/pxlBqN6CB4GAN5rIytgFR4vD4sIF6x8tIIiw5oIBEXkaSdvVVT8S2VaqI07FUS0IHWwFRs9PA2+QZ5z2btpi66ulIqhDlW8ccQIEz1j/wa7QsBwv7z8VSFtbiHXyYbdD3BRHyP49L9fLdxNkdFyrFw9QAeteveJuN79FsWj6dT3LyjiXtsjx47iicSdYakMGjteJU7kTdwUx6WLPyiczDs0NyEwIsh2RaRQHJZeQhMpfQY9V0WJgd4rxHjXXNnMcc0Sah4sigvjYIvIKfIqaZNxjR52PS4at0rvJAoCbIqJGvCw+jPYzlRLfYSHq8LCxiGx+z6Mg5srMaUfjl4TGU+gqdrmOxz8aYiukBhw2FEaOt2eWVDix5PY/TKFQ8QgKq6Kq699iq627Zyz51S7llY26pu3OAbjT6eOtJuIZwgdu0au06a0Vicd77/Yzz88OP84ZbbcPM5fUm4+ypiVO3FSySkLmGGUhPswqTjMS3r8g++z9VzZjHLtLFEUF0202reHF4mRv5xqIyr8Ax6DItnBpLcNtDJ/akMG+0IWeETaDgQuAdM7TUQrkFWUhbNQfkmCSEMzdO6foNc7Vo+ftTEiAUExsF7CZfRY3o2z5EenF8e49SKChoTpURV/Qcd6FBHEPYYPr2K/CuqKJXPBtPm+vYmbkllGIhICES/nyn1F9IuhmdPtdo9e7FzvP5vLetsfW2cJfOm4Rui+1EABlN7jvfUmja12zhi71GhSoQ1xObWfnZsH8ATgvEYX6VogCCNqqyt5J+vvRo/n+S5Z57R0GAY6lfTzzgIV6//YTPGN1Tfd5iNFc/L4sTlZ3H3fSv54y234eWyY7xpePqkWEA8CJJdEAcSepGUHb7pmszKuVzse1zcOItZdkQVTVI69bKU68gDjql38SnDotuHV5L9/Lm7k0fzOdbaUdK2uPsLC74mHKjrxVGQ9jBVt9Bpl6M5lMcj5uHHxJuw8zIv4zzqe9Rn8hzt5Di/pJwT62dQH49Q5uYUv0IVfPJFArYAdDw838M1bTpN+M/2Tm5KJWmJWPgSWlDm8LCS4Oc1yJlixf1GY7bwnN1ZwPCJRT0WNk6jvDpOpECcG22HDC07ZgsICOtLZlmzqY1MevRjf/iDxgUQyqpLufqqy5jd0KBQ4a7+i8IEN+Y3Cy8YgwVM8g78+ba7ufvOB0OAMAbLTeapmksoxUoc3BLwYzreLqIEtmFQn+ziPDPK+6bPYH4iQblhEkPEhBSfkB7LoDfnsLo/yd2d3azNZ1hXEidl6foFha2BXlQFTMiFnqpn4OfHhtNlztaxV/AjJl7cx4i4gbaSPE/HCuQZEddlVibLnKzHmyrKOLW6nNmJUkpsi3J84oEnIW349ACbXJffbd/Gna6oKEooRArKaGEaATFGUpM4FWCYzA8UPmvvWkCAriGFwHxKSyJUlSeUWmH4lfeS2cURl3bo6U+Rk02CLyHHIPVxDI8cB0DQogc1tTVEbRuVVrGL/0LCC8XhljG8wRv9VO2mob8/SX//QJgaNtX7g6RMRX38EgMpiVCYIA0/R6nrMcvxWGxYLLaj1PuQNQyaDIs1hktHLkuHB21RW8VGPUUSHHbIoioru2NoV724FAMiYrEhJ1m8lT5DzMUXT4ItAGHomRqQSP6BR6njMD3vU2OYzLNhoWlSY4knwKIZeN702JTLs8nwSEdUUEKHQiTlUvDHgI/piIcsXDamejcuqn0Fb7Kk36niR2P0dxf10DfwRRLGCQC6skIRdIrxAYQgmqkc3xI7fRUDwhgTI/sN/Ckn5NVVSDnMHZ8QW+7Nm/iGhyvx/USQVqgmTl2SVeZMSXmMuw5x11epVHnDJiVeeAUIhhQQh7dRcQRlcc1IpkIUU8CBrLpjJCXt9r0NH8l08OJgSGneSMA1CgBC4UECBsS1GfdylMjOxXaVDlMGg5QdGUwXk9lKQi6WZ+kwSEa8HXvT6uG9QwuEFhirBYoDCOLSDHauBawvHoTB8laFVogHIeQgjPWbjON8AWohKh+HASflUs0NFO0BX4EEo0BaDBZbryBEZA6BBpWOqHYDsoPXLnj1P9mN5V1MCSPkLQwhAQaFmBRpUP2S8To+pFBwBnuy4bd99QsJk+gkCcU7EHTjCXdCpSv6CtAoDkVAfiwQKlQ5ZwEI4jkQvkHWx3INPEcXjgqP0AKhBaaGBYoCCFOj6WErQgvs5xZQMX4fL6azBpR0sVI/290yWQDcPr6jJYnFayCSxIb8eRKxocpXUNkOOrypcIvlY6gUTQPlUAwCjAVANKjxLCBWvAZZSb0UR8d+yhTfz7tf2PzQAnuyQAgQ9mSh8OehBfaiBVTdBKUJ5ONHwIyZGOarpVF9kTiW0st5SWnwMFxTue5V5aVJBAa7mkIVfhKRJVXLQTgKwq0QRQcXQ/gHprgcdHqVJ2pu4hQRUOOI10Gr1BUTG92LnyS8dWiB0AKBBUKAEHaF0AL71AKqOpPSS1dqhuJ/H0k7RhZSAQayqIpCotrCSzBBF2balyBBBTsKkoxBaqbwLIb0nYNQh2GpzAdpr45QCnjQhLXwCC0QWmDqWSAECFPvm4QtCi0QWiC0QGiB0AL73AIhQNjnnyBsQGiB0AKhBUILhBaYehYIAcLU+yZhi0ILhBYILRBaILTAPrdACBD2+ScIGxBaILRAaIHQAqEFpp4FQoAw9b5J2KLQAqEFQguEFggtsM8tEAKEff4JwgaEFggtEFogtEBogalngRAgTL1vErYotEBogdACoQVCC+xzC4QAYZ9/grABoQVCC4QWCC0QWmDqWSAECFPvm4QtCi0QWiC0QGiB0AL73AIhQNjnnyBsQGiB0AKhBUILhBaYehb4/zRp6hkhQarlAAAAAElFTkSuQmCC;" vertex="1" parent="1">
                    <mxGeometry x="35" y="300" width="680" height="158.23" as="geometry"/>
                </mxCell>
                <mxCell id="15" value="React Query:&lt;br&gt;&lt;br&gt;Centerelized Loading and Error state&lt;br&gt;&lt;br&gt;Pagination / Infinite scroll&lt;br&gt;&lt;br&gt;Prefetching data&lt;br&gt;&lt;br&gt;Mutation&lt;br&gt;&lt;br&gt;De-duplication of requests&lt;br&gt;&lt;br&gt;Retry on error&lt;br&gt;&lt;br&gt;Cllbacks (error , success, using callbacks in either cases)&lt;br&gt;&lt;br&gt;APIs&amp;nbsp;" style="text;html=1;strokeColor=none;fillColor=none;align=left;verticalAlign=middle;whiteSpace=wrap;rounded=0;fontSize=16;" vertex="1" parent="1">
                    <mxGeometry x="50" y="5500" width="510" height="30" as="geometry"/>
                </mxCell>
                <mxCell id="16" value="What problem does React Query solve?" style="text;html=1;strokeColor=none;fillColor=none;align=left;verticalAlign=middle;whiteSpace=wrap;rounded=0;fontSize=16;" vertex="1" parent="1">
                    <mxGeometry x="35" y="250" width="555" height="30" as="geometry"/>
                </mxCell>
                <mxCell id="17" value="source of the truth" style="text;html=1;strokeColor=none;fillColor=none;align=center;verticalAlign=middle;whiteSpace=wrap;rounded=0;fontSize=16;" vertex="1" parent="1">
                    <mxGeometry x="295" y="440" width="160" height="30" as="geometry"/>
                </mxCell>
                <mxCell id="19" value="&lt;div style=&quot;background-color: rgb(30, 30, 30); font-family: Menlo, Monaco, &amp;quot;Courier New&amp;quot;, monospace; font-weight: normal; font-size: 16px; line-height: 18px;&quot;&gt;&lt;div style=&quot;font-size: 16px;&quot;&gt;&lt;span style=&quot;color: rgb(86, 156, 214);&quot;&gt;useIsFetching&lt;/span&gt;&lt;br&gt;&lt;/div&gt;&lt;div style=&quot;font-size: 16px;&quot;&gt;&lt;span style=&quot;color: rgb(86, 156, 214);&quot;&gt;useIsMutating&lt;/span&gt;&lt;/div&gt;&lt;/div&gt;" style="rounded=0;whiteSpace=wrap;html=1;fontSize=16;" vertex="1" parent="1">
                    <mxGeometry x="40" y="3510" width="440" height="90" as="geometry"/>
                </mxCell>
                <mxCell id="20" value="&lt;div style=&quot;background-color: rgb(30, 30, 30); font-family: Menlo, Monaco, &amp;quot;Courier New&amp;quot;, monospace; font-weight: normal; font-size: 16px; line-height: 18px;&quot;&gt;&lt;div style=&quot;font-size: 16px;&quot;&gt;&lt;span style=&quot;color: rgb(86, 156, 214);&quot;&gt;react Testing Library&lt;/span&gt;&lt;/div&gt;&lt;div style=&quot;font-size: 16px;&quot;&gt;&lt;span style=&quot;color: rgb(86, 156, 214);&quot;&gt;&lt;br&gt;&lt;/span&gt;&lt;/div&gt;&lt;div style=&quot;font-size: 16px;&quot;&gt;&lt;div style=&quot;font-size: 12px; line-height: 18px;&quot;&gt;&lt;font color=&quot;#ffffcc&quot;&gt;we should wrap the tests with QueryClientProvider&lt;/font&gt;&lt;/div&gt;&lt;/div&gt;&lt;/div&gt;" style="rounded=0;whiteSpace=wrap;html=1;fontSize=16;" vertex="1" parent="1">
                    <mxGeometry x="40" y="4680" width="440" height="90" as="geometry"/>
                </mxCell>
            </root>
        </mxGraphModel>
    </diagram>
</mxfile>